<?xml version="1.0" encoding="utf-8"?>
<!-- Generator: Adobe Illustrator 24.1.2, SVG Export Plug-In . SVG Version: 6.00 Build 0)  -->
<svg version="1.1" id="Layer_1" xmlns="http://www.w3.org/2000/svg" xmlns:xlink="http://www.w3.org/1999/xlink" x="0px" y="0px"
	 viewBox="0 0 512 512" style="enable-background:new 0 0 512 512;" xml:space="preserve">
<g>
</g>
<g>
	<path d="M142.68,250.32h91.64c0,1.69,0.05,4.06,0.16,7.11c0.32,8.01,0.47,13.43,0.47,16.25c0,34.87-9.32,61.96-27.97,81.26
		c-18.64,19.3-44.93,28.95-78.84,28.95c-18.96,0-35.87-2.99-50.72-8.97s-27.86-15.01-39.03-27.08
		c-10.96-11.96-19.35-26.01-25.2-42.15c-5.85-16.14-8.77-33.4-8.77-51.8c0-18.73,2.97-36,8.93-51.8
		c5.95-15.8,14.77-29.74,26.46-41.81c11.27-11.85,24.49-20.88,39.66-27.08c15.17-6.21,31.39-9.31,48.66-9.31
		c18.22,0,34.52,3.56,48.9,10.66c14.38,7.11,27.2,18,38.47,32.67l-27.49,22.18c-7.8-9.7-16.59-16.93-26.39-21.67
		c-9.8-4.74-20.75-7.11-32.86-7.11c-25.07,0-45.53,8.61-61.38,25.82c-15.85,17.21-23.78,39.59-23.78,67.12
		c0,27.99,7.92,50.7,23.78,68.14c15.85,17.44,36.42,26.15,61.7,26.15c21.49,0,38.39-5.36,50.72-16.08
		c12.32-10.72,18.49-25.33,18.49-43.84v-3.55h-55.61V250.32z"/>
	<path d="M449.51,254.89c-0.42-1.92-1.11-7.22-2.05-15.91c-0.84-7.22-1.58-13.2-2.21-17.94c-0.95,5.64-2.29,11.29-4.03,16.93
		c-1.74,5.64-3.92,11.4-6.56,17.27l-60.51,132.04l-60.51-134.75c-2.53-5.53-4.71-10.89-6.56-16.08c-1.84-5.19-3.45-10.33-4.82-15.4
		c-0.11,5.19-0.5,10.64-1.19,16.34c-0.69,5.7-1.71,11.65-3.08,17.86l-24.81,122.05h-34.6l54.67-258.32l68.25,156.42
		c1.05,2.48,2.66,6.6,4.82,12.36c2.16,5.76,4.76,12.87,7.82,21.33c2.21-7.11,5.69-16.14,10.43-27.08c1.26-2.93,2.21-5.19,2.84-6.77
		l66.67-156.25l55.93,258.32H475.1L449.51,254.89z"/>
</g>
<g>
</g>
<g>
</g>
<g>
</g>
<g>
</g>
<g>
</g>
<g>
</g>
<g>
</g>
<g>
</g>
<g>
</g>
<g>
</g>
<g>
</g>
<g>
</g>
<g>
</g>
<g>
</g>
<g>
</g>
</svg>
