<?xml version="1.0" encoding="utf-8"?>
<!-- Generator: Adobe Illustrator 24.1.2, SVG Export Plug-In . SVG Version: 6.00 Build 0)  -->
<svg version="1.1" id="Layer_1" xmlns="http://www.w3.org/2000/svg" xmlns:xlink="http://www.w3.org/1999/xlink" x="0px" y="0px"
	 viewBox="0 0 1200.2 593.67" style="enable-background:new 0 0 1200.2 593.67;" xml:space="preserve">
<style type="text/css">
	.st0{fill:#FFFFFF;}
	.st1{fill:none;stroke:#000000;stroke-width:12.1567;stroke-linecap:round;stroke-miterlimit:10;}
	.st2{fill:none;stroke:#000000;stroke-width:4.0522;stroke-linecap:round;stroke-miterlimit:10;}
	.st3{fill:none;stroke:#000000;stroke-width:8.1044;stroke-linecap:round;stroke-miterlimit:10;}
	.st4{fill:none;stroke:#000000;stroke-width:8.1044;stroke-linecap:round;stroke-miterlimit:10;stroke-dasharray:18.344,18.344;}
	
		.st5{fill-rule:evenodd;clip-rule:evenodd;fill:none;stroke:#000000;stroke-width:4.0522;stroke-linecap:round;stroke-miterlimit:10;}
</style>
<g>
	
		<ellipse transform="matrix(0.7071 -0.7071 0.7071 0.7071 -128.3024 277.4822)" class="st0" cx="270.8" cy="293.62" rx="173.41" ry="173.41"/>
	<path d="M270.8,122.23c45.78,0,88.82,17.83,121.19,50.2c32.37,32.37,50.2,75.41,50.2,121.19s-17.83,88.82-50.2,121.19
		C359.62,447.17,316.58,465,270.8,465s-88.82-17.83-121.19-50.2c-32.37-32.37-50.2-75.41-50.2-121.19s17.83-88.82,50.2-121.19
		C181.98,140.06,225.02,122.23,270.8,122.23 M270.8,118.18c-96.89,0-175.44,78.55-175.44,175.44s78.55,175.44,175.44,175.44
		s175.44-78.55,175.44-175.44S367.69,118.18,270.8,118.18L270.8,118.18z"/>
</g>
<line class="st1" x1="199.68" y1="179.82" x2="341.92" y2="179.82"/>
<line class="st2" x1="270.8" y1="179.82" x2="270.8" y2="84.12"/>
<g>
	<g>
		<line class="st3" x1="343.11" y1="239.09" x2="335" y2="239.09"/>
		<line class="st4" x1="316.66" y1="239.09" x2="215.77" y2="239.09"/>
		<line class="st3" x1="206.6" y1="239.09" x2="198.49" y2="239.09"/>
	</g>
</g>
<g>
	<g>
		<line class="st3" x1="198.49" y1="292.87" x2="206.6" y2="292.87"/>
		<line class="st4" x1="224.94" y1="292.87" x2="325.83" y2="292.87"/>
		<line class="st3" x1="335" y1="292.87" x2="343.11" y2="292.87"/>
	</g>
</g>
<g>
	<g>
		<line class="st3" x1="198.49" y1="345.03" x2="206.6" y2="345.03"/>
		<line class="st4" x1="224.94" y1="345.03" x2="325.83" y2="345.03"/>
		<line class="st3" x1="335" y1="345.03" x2="343.11" y2="345.03"/>
	</g>
</g>
<polyline class="st3" points="196.89,419.27 196.89,395.56 343.88,395.56 343.88,419.31 "/>
<polyline class="st5" points="343.88,395.56 391.29,362.37 391.29,272.28 343.88,239.09 "/>
<line class="st2" x1="198.49" y1="292.87" x2="46.76" y2="292.87"/>
<line class="st2" x1="198.49" y1="345.03" x2="56.32" y2="345.03"/>
<line class="st2" x1="343.88" y1="419.31" x2="343.88" y2="490.17"/>
<polyline class="st2" points="315.5,497.85 315.5,435.72 270.38,407.44 "/>
<polyline class="st2" points="225.27,497.85 225.27,435.72 270.38,407.44 "/>
<g>
	<path d="M43.97,361.02v5.28H16.72l15.2-18.2c1.89-2.28,3.27-4.28,4.14-6s1.31-3.29,1.31-4.7c0-2.02-0.6-3.61-1.79-4.76
		c-1.19-1.16-2.83-1.74-4.9-1.74c-1.85,0-3.38,0.58-4.58,1.74s-1.88,2.68-2.03,4.57h-6.36c0-3.65,1.22-6.56,3.67-8.74
		c2.44-2.18,5.73-3.26,9.86-3.26c3.93,0,7.02,1.01,9.29,3.03c2.27,2.02,3.4,4.77,3.4,8.25c0,2.48-0.65,4.99-1.96,7.51
		c-1.31,2.53-4.07,6.2-8.29,11.02l-5.17,6H43.97z"/>
</g>
<g>
	<path d="M344.54,526.61h6.33v0.33c0,1.87,0.64,3.36,1.92,4.47c1.28,1.11,3.01,1.67,5.2,1.67c2.46,0,4.37-0.62,5.71-1.85
		c1.34-1.23,2.01-3,2.01-5.32c0-2.43-0.69-4.25-2.07-5.49c-1.38-1.23-3.44-1.85-6.18-1.85c-0.13,0-0.33,0.01-0.61,0.03
		s-0.49,0.03-0.64,0.03v-5.33c0.13,0,0.33,0.01,0.6,0.03s0.47,0.03,0.6,0.03c2.41,0,4.22-0.5,5.45-1.51
		c1.22-1.01,1.83-2.5,1.83-4.46c0-1.74-0.55-3.13-1.65-4.15c-1.1-1.03-2.58-1.54-4.43-1.54c-1.98,0-3.53,0.48-4.65,1.43
		c-1.12,0.96-1.71,2.29-1.76,4.01h-5.97c0.19-3.46,1.36-6.12,3.53-7.97c2.17-1.85,5.18-2.78,9.03-2.78c3.72,0,6.67,0.97,8.85,2.92
		c2.18,1.94,3.26,4.57,3.26,7.89c0,2.5-0.62,4.55-1.85,6.15c-1.23,1.6-2.94,2.57-5.13,2.9c2.57,0.46,4.53,1.59,5.88,3.39
		c1.34,1.8,2.01,4.18,2.01,7.14c0,3.61-1.26,6.48-3.79,8.6c-2.53,2.12-5.95,3.18-10.27,3.18c-3.91,0-7.06-1.08-9.45-3.24
		C345.9,533.16,344.65,530.26,344.54,526.61z"/>
</g>
<g>
	<path d="M310.19,549.78v-8.25h-19.5l23.67-32.84h1.86v28.23h4.95v4.61h-4.95v8.25H310.19z M310.36,522.3l-10.36,14.61h10.2v-10.58
		c0-0.56,0.01-1.18,0.04-1.86C310.26,523.78,310.3,523.06,310.36,522.3z"/>
</g>
<g>
	<path d="M213.76,540.05c0.94,1.74,2.16,3.07,3.64,4c1.48,0.93,3.13,1.39,4.95,1.39c2.69,0,4.86-0.86,6.53-2.57
		c1.67-1.71,2.5-3.97,2.5-6.76c0-2.69-0.88-4.87-2.63-6.56c-1.75-1.69-4.04-2.53-6.88-2.53c-1.7,0-3.28,0.29-4.74,0.88
		c-1.45,0.58-2.74,1.45-3.85,2.6l-1.64-0.36l5.06-20.64h19.23v5.36h-15.25l-2.39,8.97c1.11-0.46,2.19-0.81,3.22-1.03
		c1.04-0.22,2.07-0.33,3.11-0.33c3.87,0,7.02,1.24,9.45,3.72c2.43,2.48,3.64,5.71,3.64,9.7c0,4.56-1.42,8.19-4.25,10.91
		c-2.83,2.71-6.63,4.07-11.39,4.07c-2.82,0-5.26-0.49-7.33-1.46c-2.07-0.97-3.86-2.48-5.36-4.51L213.76,540.05z"/>
</g>
<g>
	<path d="M263.14,69.73l16.61-34.2h-18.81v-5.22h28.03L268.5,72.12L263.14,69.73z"/>
</g>
<g>
	<path d="M24.7,294.65c-0.85,0.43-1.72,0.74-2.6,0.95s-1.77,0.31-2.68,0.31c-3.65,0-6.65-1.22-9-3.67
		c-2.35-2.44-3.53-5.58-3.53-9.42c0-4.19,1.32-7.56,3.96-10.11c2.64-2.56,6.13-3.83,10.46-3.83c4.04,0,7.29,1.25,9.77,3.74
		s3.71,5.76,3.71,9.82c0,4.35-2.97,10.7-8.92,19.03l-0.69,1L18,312.52l-5-2.56L24.7,294.65z M28.42,282.38c0-2.43-0.67-4.38-2-5.86
		c-1.33-1.48-3.08-2.22-5.25-2.22c-2.43,0-4.34,0.72-5.74,2.17c-1.4,1.45-2.1,3.42-2.1,5.92c0,2.56,0.69,4.56,2.06,6.01
		s3.26,2.18,5.67,2.18c2.17,0,3.94-0.76,5.31-2.29C27.74,286.75,28.42,284.78,28.42,282.38z"/>
</g>
<g>
	<path d="M494.92,59.82v-32h-7.68l2.33-4.77h10.85v36.76H494.92z"/>
	<path d="M517.76,39.66c0-0.9,0.33-1.66,0.98-2.31c0.65-0.64,1.43-0.96,2.35-0.96c0.93,0,1.72,0.31,2.36,0.94
		c0.64,0.63,0.96,1.4,0.96,2.33c0,0.93-0.32,1.72-0.96,2.36c-0.64,0.64-1.43,0.96-2.36,0.96c-0.93,0-1.72-0.32-2.36-0.96
		C518.08,41.38,517.76,40.59,517.76,39.66z M517.76,57c0-0.9,0.33-1.67,0.98-2.33c0.65-0.66,1.43-0.99,2.35-0.99
		c0.93,0,1.72,0.32,2.36,0.96c0.64,0.64,0.96,1.43,0.96,2.36c0,0.91-0.32,1.69-0.96,2.32c-0.64,0.63-1.43,0.95-2.36,0.95
		c-0.93,0-1.72-0.32-2.36-0.95C518.08,58.69,517.76,57.92,517.76,57z"/>
	<path d="M549.58,59.82V21.23l23.58,22.69c0.64,0.64,1.29,1.33,1.95,2.05c0.66,0.73,1.35,1.55,2.08,2.46V22.7h5.58v38.56
		l-24.06-23.1c-0.64-0.63-1.26-1.28-1.86-1.98c-0.6-0.69-1.17-1.42-1.71-2.18v25.81H549.58z"/>
	<path d="M589.06,47.83c0-1.76,0.33-3.42,1-4.98c0.67-1.56,1.63-2.95,2.88-4.17c1.23-1.2,2.65-2.12,4.26-2.76
		c1.61-0.64,3.29-0.96,5.05-0.96c1.81,0,3.51,0.32,5.11,0.96c1.6,0.64,3.03,1.59,4.3,2.84c1.27,1.23,2.23,2.63,2.89,4.18
		c0.66,1.56,0.99,3.19,0.99,4.89c0,1.77-0.33,3.44-0.98,5c-0.65,1.56-1.6,2.93-2.85,4.13c-1.32,1.27-2.78,2.23-4.39,2.88
		s-3.3,0.98-5.07,0.98c-1.74,0-3.41-0.33-5.02-0.98c-1.61-0.65-3.03-1.59-4.28-2.83c-1.27-1.25-2.23-2.65-2.89-4.21
		S589.06,49.58,589.06,47.83z M609.72,47.88c0-2.23-0.72-4.12-2.16-5.67c-1.44-1.55-3.2-2.32-5.27-2.32c-2.06,0-3.82,0.77-5.26,2.32
		c-1.45,1.55-2.17,3.44-2.17,5.67c0,2.23,0.72,4.12,2.17,5.67c1.44,1.55,3.2,2.32,5.26,2.32c2.06,0,3.82-0.77,5.26-2.32
		C609,52,609.72,50.11,609.72,47.88z"/>
	<path d="M622.65,59.82V40.6h-4.21v-4.82h4.21v-9.1h5.5v9.1h4.21v4.82h-4.21v19.22H622.65z"/>
	<path d="M683.02,31.73c-1.71-1.45-3.51-2.54-5.41-3.27c-1.9-0.73-3.9-1.09-6-1.09c-4.06,0-7.36,1.3-9.9,3.9
		c-2.54,2.6-3.82,5.98-3.82,10.12c0,4.01,1.24,7.31,3.71,9.91c2.48,2.6,5.6,3.9,9.37,3.9c2.2,0,4.29-0.39,6.27-1.17
		c1.99-0.78,3.89-1.95,5.72-3.52v6.82c-1.62,1.17-3.39,2.04-5.3,2.61c-1.91,0.57-3.98,0.86-6.21,0.86c-2.84,0-5.46-0.46-7.87-1.39
		c-2.41-0.93-4.53-2.3-6.35-4.11c-1.81-1.77-3.2-3.87-4.17-6.27c-0.97-2.41-1.46-4.97-1.46-7.7c0-2.72,0.49-5.28,1.46-7.67
		c0.97-2.39,2.38-4.49,4.22-6.3c1.84-1.83,3.96-3.21,6.34-4.15c2.38-0.94,4.96-1.41,7.73-1.41c2.18,0,4.26,0.32,6.24,0.95
		s3.9,1.59,5.75,2.88L683.02,31.73z"/>
	<path d="M688.27,47.83c0-1.76,0.33-3.42,1-4.98c0.67-1.56,1.63-2.95,2.88-4.17c1.23-1.2,2.65-2.12,4.26-2.76
		c1.61-0.64,3.29-0.96,5.05-0.96c1.81,0,3.51,0.32,5.11,0.96c1.6,0.64,3.03,1.59,4.3,2.84c1.27,1.23,2.23,2.63,2.89,4.18
		c0.66,1.56,0.99,3.19,0.99,4.89c0,1.77-0.33,3.44-0.98,5c-0.65,1.56-1.6,2.93-2.85,4.13c-1.32,1.27-2.78,2.23-4.39,2.88
		s-3.3,0.98-5.07,0.98c-1.74,0-3.42-0.33-5.02-0.98c-1.61-0.65-3.03-1.59-4.29-2.83c-1.27-1.25-2.23-2.65-2.89-4.21
		S688.27,49.58,688.27,47.83z M708.93,47.88c0-2.23-0.72-4.12-2.16-5.67c-1.44-1.55-3.2-2.32-5.27-2.32c-2.06,0-3.82,0.77-5.26,2.32
		c-1.45,1.55-2.17,3.44-2.17,5.67c0,2.23,0.72,4.12,2.17,5.67c1.45,1.55,3.2,2.32,5.26,2.32c2.06,0,3.82-0.77,5.26-2.32
		C708.21,52,708.93,50.11,708.93,47.88z"/>
	<path d="M720.57,59.82V35.78h5.17v3.93c1.1-1.66,2.39-2.86,3.88-3.63s3.3-1.14,5.43-1.14c1.79,0,3.32,0.28,4.58,0.85
		c1.26,0.57,2.24,1.41,2.95,2.52c0.42,0.66,0.73,1.43,0.91,2.31c0.19,0.88,0.28,2.42,0.28,4.61v14.58h-5.55V47.47
		c0-3.16-0.38-5.26-1.15-6.3s-2.13-1.56-4.09-1.56c-1.28,0-2.43,0.24-3.44,0.71c-1.01,0.47-1.8,1.14-2.37,2
		c-0.41,0.57-0.69,1.31-0.85,2.22c-0.16,0.9-0.24,2.35-0.24,4.32v10.95H720.57z"/>
	<path d="M751.09,59.82V35.78h5.17v3.93c1.1-1.66,2.39-2.86,3.88-3.63s3.3-1.14,5.43-1.14c1.79,0,3.32,0.28,4.58,0.85
		c1.26,0.57,2.24,1.41,2.95,2.52c0.42,0.66,0.73,1.43,0.91,2.31c0.19,0.88,0.28,2.42,0.28,4.61v14.58h-5.55V47.47
		c0-3.16-0.38-5.26-1.15-6.3s-2.13-1.56-4.09-1.56c-1.28,0-2.43,0.24-3.44,0.71c-1.01,0.47-1.8,1.14-2.37,2
		c-0.41,0.57-0.69,1.31-0.85,2.22c-0.16,0.9-0.24,2.35-0.24,4.32v10.95H751.09z"/>
	<path d="M804.77,48.61h-19.22c0.13,2.25,0.8,4,2,5.26c1.2,1.26,2.8,1.89,4.79,1.89c1.77,0,3.25-0.37,4.44-1.12
		c1.18-0.74,2.21-1.94,3.09-3.6l4.64,2.59c-1.35,2.42-3.03,4.22-5.02,5.4c-1.99,1.18-4.34,1.77-7.02,1.77
		c-3.85,0-6.92-1.17-9.2-3.52c-2.28-2.35-3.42-5.48-3.42-9.41c0-3.77,1.18-6.87,3.54-9.29c2.36-2.43,5.39-3.64,9.09-3.64
		c3.87,0,6.89,1.11,9.05,3.32c2.16,2.21,3.25,5.32,3.25,9.31V48.61z M799.07,44.91c-0.22-1.72-0.88-3.04-1.98-3.94
		c-1.1-0.9-2.6-1.36-4.51-1.36c-1.81,0-3.26,0.44-4.36,1.32c-1.1,0.88-1.87,2.21-2.31,3.98H799.07z"/>
	<path d="M828.45,42.63c-0.85-0.93-1.83-1.64-2.95-2.13s-2.34-0.74-3.64-0.74c-2.25,0-4.05,0.73-5.4,2.18
		c-1.35,1.45-2.03,3.38-2.03,5.78c0,2.5,0.68,4.47,2.04,5.89c1.36,1.43,3.24,2.14,5.64,2.14c1.33,0,2.53-0.25,3.58-0.75
		c1.05-0.5,1.97-1.25,2.76-2.27v6.34c-1.01,0.57-2.1,1.01-3.26,1.29c-1.16,0.29-2.39,0.43-3.69,0.43c-3.77,0-6.84-1.2-9.22-3.6
		c-2.38-2.4-3.56-5.51-3.56-9.33c0-3.87,1.23-6.99,3.69-9.37c2.46-2.37,5.67-3.56,9.65-3.56c1.25,0,2.4,0.12,3.45,0.37
		c1.05,0.25,2.03,0.62,2.94,1.13V42.63z"/>
	<path d="M835.37,59.82V40.6h-4.21v-4.82h4.21v-9.1h5.5v9.1h4.21v4.82h-4.21v19.22H835.37z"/>
	<path d="M872.97,48.61h-19.22c0.13,2.25,0.8,4,2,5.26c1.2,1.26,2.8,1.89,4.79,1.89c1.77,0,3.25-0.37,4.44-1.12
		c1.18-0.74,2.21-1.94,3.09-3.6l4.64,2.59c-1.35,2.42-3.03,4.22-5.02,5.4c-1.99,1.18-4.34,1.77-7.02,1.77
		c-3.85,0-6.92-1.17-9.2-3.52c-2.28-2.35-3.42-5.48-3.42-9.41c0-3.77,1.18-6.87,3.54-9.29c2.36-2.43,5.39-3.64,9.09-3.64
		c3.87,0,6.89,1.11,9.05,3.32c2.16,2.21,3.25,5.32,3.25,9.31V48.61z M867.27,44.91c-0.22-1.72-0.88-3.04-1.98-3.94
		c-1.1-0.9-2.6-1.36-4.51-1.36c-1.81,0-3.26,0.44-4.36,1.32c-1.1,0.88-1.87,2.21-2.31,3.98H867.27z"/>
	<path d="M895.82,20.52h5.5v39.3h-5.5V56.7c-0.98,1.39-2.13,2.42-3.44,3.09s-2.81,1.01-4.5,1.01c-3.4,0-6.07-1.16-8.02-3.49
		c-1.95-2.32-2.93-5.51-2.93-9.55c0-3.84,1-6.93,2.99-9.29c1.99-2.36,4.6-3.54,7.81-3.54c1.96,0,3.64,0.41,5.03,1.23
		s2.41,2,3.05,3.54V20.52z M895.97,47.73c0-2.48-0.58-4.42-1.74-5.81c-1.16-1.39-2.78-2.08-4.86-2.08s-3.71,0.71-4.91,2.14
		s-1.79,3.41-1.79,5.95c0,2.55,0.57,4.52,1.72,5.91s2.77,2.08,4.87,2.08c1.99,0,3.61-0.75,4.84-2.24
		C895.35,52.17,895.97,50.19,895.97,47.73z"/>
	<path d="M507.16,117.31v4.82h-24.87l13.87-16.61c1.72-2.08,2.98-3.9,3.78-5.48c0.79-1.57,1.19-3,1.19-4.28
		c0-1.84-0.54-3.29-1.64-4.35c-1.09-1.06-2.58-1.58-4.48-1.58c-1.69,0-3.08,0.53-4.18,1.58c-1.1,1.06-1.72,2.45-1.85,4.17h-5.81
		c0-3.33,1.12-5.99,3.35-7.97c2.23-1.99,5.23-2.98,9-2.98c3.58,0,6.41,0.92,8.48,2.76c2.07,1.84,3.11,4.35,3.11,7.53
		c0,2.27-0.6,4.55-1.79,6.86c-1.19,2.31-3.71,5.66-7.57,10.05l-4.72,5.48H507.16z"/>
	<path d="M517.76,101.97c0-0.9,0.33-1.66,0.98-2.31c0.65-0.64,1.43-0.96,2.35-0.96c0.93,0,1.72,0.31,2.36,0.94
		c0.64,0.63,0.96,1.4,0.96,2.33c0,0.93-0.32,1.72-0.96,2.36c-0.64,0.64-1.43,0.96-2.36,0.96c-0.93,0-1.72-0.32-2.36-0.96
		C518.08,103.69,517.76,102.9,517.76,101.97z M517.76,119.32c0-0.9,0.33-1.67,0.98-2.33c0.65-0.66,1.43-0.99,2.35-0.99
		c0.93,0,1.72,0.32,2.36,0.96c0.64,0.64,0.96,1.43,0.96,2.36c0,0.91-0.32,1.69-0.96,2.32c-0.64,0.63-1.43,0.95-2.36,0.95
		c-0.93,0-1.72-0.32-2.36-0.95C518.08,121,517.76,120.23,517.76,119.32z"/>
	<path d="M579.37,94.04c-1.71-1.45-3.51-2.54-5.41-3.27c-1.9-0.73-3.9-1.09-6-1.09c-4.06,0-7.36,1.3-9.9,3.9
		c-2.54,2.6-3.82,5.98-3.82,10.12c0,4.01,1.24,7.31,3.71,9.91c2.48,2.6,5.6,3.9,9.37,3.9c2.2,0,4.29-0.39,6.28-1.17
		c1.99-0.78,3.89-1.95,5.72-3.52v6.82c-1.62,1.17-3.39,2.04-5.3,2.61c-1.91,0.57-3.98,0.86-6.21,0.86c-2.84,0-5.46-0.46-7.87-1.39
		c-2.41-0.93-4.53-2.3-6.35-4.11c-1.81-1.77-3.2-3.87-4.17-6.27c-0.97-2.41-1.46-4.97-1.46-7.7c0-2.72,0.49-5.28,1.46-7.67
		c0.97-2.39,2.38-4.49,4.22-6.3c1.84-1.83,3.96-3.21,6.34-4.15s4.96-1.41,7.73-1.41c2.18,0,4.26,0.32,6.24,0.95s3.9,1.59,5.76,2.88
		L579.37,94.04z"/>
	<path d="M584.62,110.14c0-1.76,0.33-3.42,1-4.98c0.67-1.56,1.63-2.95,2.88-4.17c1.23-1.2,2.65-2.12,4.26-2.76
		c1.61-0.64,3.29-0.96,5.05-0.96c1.81,0,3.51,0.32,5.11,0.96c1.6,0.64,3.03,1.59,4.3,2.84c1.27,1.23,2.23,2.63,2.89,4.18
		s0.99,3.19,0.99,4.89c0,1.77-0.32,3.44-0.98,5c-0.65,1.56-1.6,2.93-2.85,4.13c-1.32,1.27-2.78,2.23-4.39,2.88s-3.3,0.98-5.07,0.98
		c-1.74,0-3.41-0.33-5.02-0.98c-1.61-0.65-3.03-1.59-4.28-2.83c-1.27-1.25-2.23-2.65-2.89-4.21S584.62,111.9,584.62,110.14z
		 M605.28,110.19c0-2.23-0.72-4.12-2.16-5.67c-1.44-1.55-3.19-2.32-5.27-2.32c-2.06,0-3.82,0.77-5.26,2.32
		c-1.45,1.55-2.17,3.44-2.17,5.67c0,2.23,0.72,4.12,2.17,5.67c1.44,1.55,3.2,2.32,5.26,2.32c2.06,0,3.82-0.77,5.26-2.32
		C604.56,114.31,605.28,112.42,605.28,110.19z"/>
	<path d="M616.92,122.13V98.09h5.17v3.93c1.1-1.66,2.39-2.86,3.88-3.63s3.3-1.14,5.43-1.14c1.79,0,3.32,0.28,4.58,0.85
		c1.26,0.57,2.24,1.41,2.95,2.52c0.42,0.66,0.73,1.43,0.91,2.31c0.19,0.88,0.28,2.42,0.28,4.61v14.58h-5.55v-12.35
		c0-3.16-0.38-5.26-1.15-6.3s-2.13-1.56-4.09-1.56c-1.28,0-2.43,0.24-3.44,0.71c-1.01,0.47-1.8,1.14-2.37,2
		c-0.41,0.57-0.69,1.31-0.85,2.22c-0.16,0.9-0.24,2.35-0.24,4.32v10.95H616.92z"/>
	<path d="M648.74,122.13v-19.22h-4.21v-4.82h4.21v-9.1h5.5v9.1h4.21v4.82h-4.21v19.22H648.74z"/>
	<path d="M668.69,101.92c0.59-1.59,1.37-2.76,2.35-3.52c0.97-0.76,2.18-1.14,3.61-1.14c0.78,0,1.54,0.09,2.29,0.28
		c0.75,0.19,1.49,0.46,2.22,0.81l-1.98,4.67c-0.47-0.34-0.99-0.59-1.53-0.75c-0.55-0.16-1.16-0.24-1.84-0.24
		c-1.83,0-3.14,0.73-3.93,2.19c-0.79,1.46-1.19,3.92-1.19,7.37v10.55h-5.5V98.04h5.5V101.92z"/>
	<path d="M680.54,110.14c0-1.76,0.33-3.42,1-4.98c0.67-1.56,1.63-2.95,2.88-4.17c1.23-1.2,2.65-2.12,4.26-2.76
		c1.61-0.64,3.29-0.96,5.05-0.96c1.81,0,3.51,0.32,5.11,0.96c1.6,0.64,3.03,1.59,4.3,2.84c1.27,1.23,2.23,2.63,2.89,4.18
		c0.66,1.56,0.99,3.19,0.99,4.89c0,1.77-0.33,3.44-0.98,5c-0.65,1.56-1.6,2.93-2.85,4.13c-1.32,1.27-2.78,2.23-4.39,2.88
		s-3.3,0.98-5.07,0.98c-1.74,0-3.42-0.33-5.02-0.98c-1.61-0.65-3.03-1.59-4.29-2.83c-1.27-1.25-2.23-2.65-2.89-4.21
		S680.54,111.9,680.54,110.14z M701.2,110.19c0-2.23-0.72-4.12-2.16-5.67c-1.44-1.55-3.2-2.32-5.27-2.32
		c-2.06,0-3.82,0.77-5.26,2.32c-1.45,1.55-2.17,3.44-2.17,5.67c0,2.23,0.72,4.12,2.17,5.67c1.45,1.55,3.2,2.32,5.26,2.32
		c2.06,0,3.82-0.77,5.26-2.32C700.48,114.31,701.2,112.42,701.2,110.19z"/>
	<path d="M713.09,122.13v-39.3h5.5v39.3H713.09z"/>
	<path d="M763.14,103.11h14.71c0,0.25,0.01,0.61,0.03,1.06c0.05,1.2,0.08,2.01,0.08,2.43c0,5.22-1.5,9.28-4.49,12.17
		c-2.99,2.89-7.21,4.34-12.65,4.34c-3.04,0-5.76-0.45-8.14-1.34c-2.38-0.9-4.47-2.25-6.26-4.06c-1.76-1.79-3.11-3.9-4.04-6.31
		s-1.41-5-1.41-7.76c0-2.81,0.48-5.39,1.43-7.76c0.96-2.37,2.37-4.45,4.25-6.26c1.81-1.77,3.93-3.13,6.36-4.06
		c2.43-0.93,5.04-1.39,7.81-1.39c2.92,0,5.54,0.53,7.85,1.6c2.31,1.06,4.37,2.7,6.17,4.89l-4.41,3.32
		c-1.25-1.45-2.66-2.54-4.23-3.25s-3.33-1.06-5.27-1.06c-4.02,0-7.31,1.29-9.85,3.87c-2.54,2.58-3.82,5.93-3.82,10.05
		c0,4.19,1.27,7.59,3.82,10.21c2.54,2.61,5.84,3.92,9.9,3.92c3.45,0,6.16-0.8,8.14-2.41c1.98-1.61,2.97-3.79,2.97-6.57v-0.53h-8.92
		V103.11z"/>
	<path d="M789.33,101.92c0.59-1.59,1.37-2.76,2.35-3.52c0.97-0.76,2.18-1.14,3.61-1.14c0.78,0,1.54,0.09,2.29,0.28
		c0.75,0.19,1.49,0.46,2.22,0.81l-1.98,4.67c-0.47-0.34-0.99-0.59-1.53-0.75c-0.55-0.16-1.16-0.24-1.84-0.24
		c-1.83,0-3.14,0.73-3.93,2.19c-0.79,1.46-1.19,3.92-1.19,7.37v10.55h-5.5V98.04h5.5V101.92z"/>
	<path d="M802.46,87.7c0-0.93,0.34-1.73,1.03-2.41c0.68-0.68,1.5-1.01,2.45-1.01c0.98,0,1.8,0.33,2.45,0.98
		c0.65,0.65,0.98,1.47,0.98,2.45c0,0.98-0.33,1.8-0.99,2.47c-0.66,0.67-1.47,1-2.43,1c-0.95,0-1.76-0.34-2.45-1.03
		S802.46,88.65,802.46,87.7z M803.2,122.13V98.09h5.5v24.04H803.2z"/>
	<path d="M833.67,82.83h5.5v39.3h-5.5v-3.12c-0.98,1.39-2.13,2.42-3.44,3.09s-2.81,1.01-4.5,1.01c-3.4,0-6.07-1.16-8.02-3.49
		c-1.95-2.32-2.93-5.51-2.93-9.55c0-3.84,1-6.93,2.99-9.29c1.99-2.36,4.6-3.54,7.81-3.54c1.96,0,3.64,0.41,5.03,1.23
		s2.41,2,3.05,3.54V82.83z M833.83,110.04c0-2.48-0.58-4.42-1.74-5.81c-1.16-1.39-2.78-2.08-4.86-2.08s-3.71,0.71-4.91,2.14
		s-1.79,3.41-1.79,5.95c0,2.55,0.57,4.52,1.72,5.91s2.77,2.08,4.87,2.08c1.99,0,3.61-0.75,4.84-2.24
		C833.21,114.49,833.83,112.5,833.83,110.04z"/>
	<path d="M483.58,174.53h5.78v0.3c0,1.71,0.58,3.07,1.75,4.08c1.17,1.01,2.75,1.52,4.74,1.52c2.25,0,3.98-0.56,5.21-1.69
		c1.23-1.12,1.84-2.74,1.84-4.86c0-2.21-0.63-3.88-1.89-5.01c-1.26-1.12-3.14-1.69-5.64-1.69c-0.12,0-0.3,0.01-0.56,0.03
		c-0.25,0.02-0.45,0.03-0.58,0.03v-4.87c0.12,0,0.3,0.01,0.54,0.03c0.24,0.02,0.43,0.03,0.54,0.03c2.2,0,3.85-0.46,4.97-1.38
		c1.12-0.92,1.67-2.28,1.67-4.07c0-1.59-0.5-2.85-1.51-3.79c-1.01-0.94-2.35-1.41-4.04-1.41c-1.81,0-3.22,0.44-4.25,1.31
		c-1.02,0.87-1.56,2.09-1.61,3.66h-5.45c0.17-3.16,1.24-5.59,3.22-7.28c1.98-1.69,4.72-2.54,8.24-2.54c3.4,0,6.09,0.89,8.08,2.66
		c1.99,1.77,2.98,4.17,2.98,7.2c0,2.28-0.56,4.15-1.69,5.62s-2.68,2.35-4.68,2.65c2.35,0.42,4.14,1.45,5.36,3.09
		c1.23,1.64,1.84,3.81,1.84,6.52c0,3.3-1.15,5.91-3.46,7.85c-2.31,1.94-5.43,2.9-9.37,2.9c-3.57,0-6.44-0.98-8.62-2.95
		C484.83,180.51,483.69,177.86,483.58,174.53z"/>
	<path d="M517.76,164.28c0-0.9,0.33-1.66,0.98-2.31c0.65-0.64,1.43-0.96,2.35-0.96c0.93,0,1.72,0.31,2.36,0.94
		c0.64,0.63,0.96,1.4,0.96,2.33c0,0.93-0.32,1.72-0.96,2.36c-0.64,0.64-1.43,0.96-2.36,0.96c-0.93,0-1.72-0.32-2.36-0.96
		C518.08,166,517.76,165.21,517.76,164.28z M517.76,181.63c0-0.9,0.33-1.67,0.98-2.33c0.65-0.66,1.43-0.99,2.35-0.99
		c0.93,0,1.72,0.32,2.36,0.96c0.64,0.64,0.96,1.43,0.96,2.36c0,0.91-0.32,1.69-0.96,2.32c-0.64,0.63-1.43,0.95-2.36,0.95
		c-0.93,0-1.72-0.32-2.36-0.95C518.08,183.31,517.76,182.54,517.76,181.63z"/>
	<path d="M579.37,156.35c-1.71-1.45-3.51-2.54-5.41-3.27c-1.9-0.73-3.9-1.09-6-1.09c-4.06,0-7.36,1.3-9.9,3.9
		c-2.54,2.6-3.82,5.98-3.82,10.12c0,4.01,1.24,7.31,3.71,9.91c2.48,2.6,5.6,3.9,9.37,3.9c2.2,0,4.29-0.39,6.28-1.17
		c1.99-0.78,3.89-1.95,5.72-3.52v6.82c-1.62,1.17-3.39,2.04-5.3,2.61c-1.91,0.57-3.98,0.86-6.21,0.86c-2.84,0-5.46-0.46-7.87-1.39
		c-2.41-0.93-4.53-2.3-6.35-4.11c-1.81-1.77-3.2-3.87-4.17-6.27c-0.97-2.41-1.46-4.97-1.46-7.7c0-2.72,0.49-5.28,1.46-7.67
		c0.97-2.39,2.38-4.49,4.22-6.3c1.84-1.83,3.96-3.21,6.34-4.15s4.96-1.41,7.73-1.41c2.18,0,4.26,0.32,6.24,0.95s3.9,1.59,5.76,2.88
		L579.37,156.35z"/>
	<path d="M609.01,184.44h-5.5v-3.12c-0.98,1.39-2.13,2.42-3.44,3.09c-1.31,0.68-2.81,1.01-4.5,1.01c-3.4,0-6.07-1.16-8.02-3.49
		c-1.95-2.32-2.93-5.51-2.93-9.55c0-3.84,1-6.93,2.99-9.29c1.99-2.36,4.6-3.54,7.81-3.54c1.96,0,3.64,0.41,5.03,1.23
		c1.39,0.82,2.41,2,3.06,3.54v-3.93h5.5V184.44z M603.66,172.35c0-2.48-0.58-4.42-1.74-5.81c-1.16-1.39-2.78-2.08-4.86-2.08
		s-3.71,0.71-4.91,2.14c-1.19,1.43-1.79,3.41-1.79,5.95c0,2.55,0.57,4.52,1.72,5.91s2.77,2.08,4.87,2.08c1.98,0,3.59-0.75,4.83-2.26
		C603.04,176.78,603.66,174.8,603.66,172.35z"/>
	<path d="M617.91,184.44v-19.22h-4.21v-4.82h4.21v-9.1h5.5v9.1h4.21v4.82h-4.21v19.22H617.91z"/>
	<path d="M632.36,184.44v-39.3h5.17v19.19c1.1-1.66,2.39-2.86,3.88-3.63s3.3-1.14,5.43-1.14c1.79,0,3.32,0.28,4.58,0.85
		c1.26,0.57,2.24,1.41,2.95,2.52c0.42,0.66,0.73,1.43,0.91,2.31c0.19,0.88,0.28,2.42,0.28,4.61v14.58h-5.55v-12.35
		c0-3.16-0.38-5.26-1.15-6.3s-2.13-1.56-4.09-1.56c-1.28,0-2.43,0.24-3.44,0.71c-1.01,0.47-1.8,1.14-2.37,2
		c-0.41,0.57-0.69,1.31-0.85,2.22c-0.16,0.9-0.24,2.35-0.24,4.32v10.95H632.36z"/>
	<path d="M661.11,172.45c0-1.76,0.33-3.42,1-4.98c0.67-1.56,1.63-2.95,2.88-4.17c1.23-1.2,2.65-2.12,4.26-2.76
		c1.61-0.64,3.29-0.96,5.05-0.96c1.81,0,3.51,0.32,5.11,0.96c1.6,0.64,3.03,1.59,4.3,2.84c1.27,1.23,2.23,2.63,2.89,4.18
		c0.66,1.56,0.99,3.19,0.99,4.89c0,1.77-0.33,3.44-0.98,5c-0.65,1.56-1.6,2.93-2.85,4.13c-1.32,1.27-2.78,2.23-4.39,2.88
		s-3.3,0.98-5.07,0.98c-1.74,0-3.42-0.33-5.02-0.98c-1.61-0.65-3.03-1.59-4.29-2.83c-1.27-1.25-2.23-2.65-2.89-4.21
		S661.11,174.21,661.11,172.45z M681.78,172.5c0-2.23-0.72-4.12-2.16-5.67c-1.44-1.55-3.2-2.32-5.27-2.32
		c-2.06,0-3.82,0.77-5.26,2.32c-1.45,1.55-2.17,3.44-2.17,5.67c0,2.23,0.72,4.12,2.17,5.67c1.45,1.55,3.2,2.32,5.26,2.32
		c2.06,0,3.82-0.77,5.26-2.32C681.05,176.62,681.78,174.73,681.78,172.5z"/>
	<path d="M710.53,145.14h5.5v39.3h-5.5v-3.12c-0.98,1.39-2.13,2.42-3.44,3.09s-2.81,1.01-4.5,1.01c-3.4,0-6.07-1.16-8.02-3.49
		c-1.95-2.32-2.93-5.51-2.93-9.55c0-3.84,1-6.93,2.99-9.29c1.99-2.36,4.6-3.54,7.81-3.54c1.96,0,3.64,0.41,5.03,1.23
		s2.41,2,3.05,3.54V145.14z M710.68,172.35c0-2.48-0.58-4.42-1.74-5.81c-1.16-1.39-2.78-2.08-4.86-2.08s-3.71,0.71-4.91,2.14
		s-1.79,3.41-1.79,5.95c0,2.55,0.57,4.52,1.72,5.91s2.77,2.08,4.87,2.08c1.99,0,3.61-0.75,4.84-2.24
		C710.06,176.8,710.68,174.81,710.68,172.35z"/>
	<path d="M746.79,173.23h-19.22c0.13,2.25,0.8,4,2,5.26c1.2,1.26,2.8,1.89,4.79,1.89c1.77,0,3.25-0.37,4.44-1.12
		c1.18-0.74,2.21-1.94,3.09-3.6l4.64,2.59c-1.35,2.42-3.03,4.22-5.02,5.4c-1.99,1.18-4.34,1.77-7.02,1.77
		c-3.85,0-6.92-1.17-9.2-3.52c-2.28-2.35-3.42-5.48-3.42-9.41c0-3.77,1.18-6.87,3.54-9.29c2.36-2.43,5.39-3.64,9.09-3.64
		c3.87,0,6.89,1.11,9.05,3.32c2.16,2.21,3.25,5.32,3.25,9.31V173.23z M741.08,169.53c-0.22-1.72-0.88-3.04-1.98-3.94
		c-1.1-0.9-2.6-1.36-4.51-1.36c-1.81,0-3.26,0.44-4.36,1.32c-1.1,0.88-1.87,2.21-2.31,3.98H741.08z"/>
	<path d="M791.94,184.44l-2.99-3.52c-1.76,1.5-3.56,2.62-5.41,3.33s-3.88,1.08-6.07,1.08c-3.42,0-6.19-0.99-8.33-2.97
		c-2.14-1.98-3.21-4.52-3.21-7.63c0-2.11,0.66-4.06,1.98-5.84s3.41-3.57,6.29-5.36l-1.5-1.62c-0.83-0.9-1.46-1.88-1.9-2.94
		c-0.44-1.06-0.66-2.15-0.66-3.25c0-2.43,0.89-4.43,2.67-6c1.78-1.56,4.08-2.35,6.88-2.35c2.79,0,5,0.71,6.64,2.12
		c1.64,1.41,2.46,3.32,2.46,5.72c0,1.81-0.58,3.46-1.72,4.96c-1.15,1.5-2.98,2.98-5.5,4.45l7.73,8.98c0.74-0.74,1.5-1.59,2.28-2.54
		c0.78-0.95,1.61-2.04,2.48-3.27l3.55,3.78c-0.68,1.08-1.43,2.11-2.26,3.08c-0.83,0.97-1.72,1.88-2.69,2.73l6.24,7.07H791.94z
		 M785.53,176.96l-8.11-9.36l-0.94,0.63c-1.77,1.15-3.01,2.2-3.71,3.16c-0.7,0.96-1.05,2.02-1.05,3.18c0,1.64,0.57,3.03,1.72,4.16
		c1.15,1.13,2.58,1.7,4.28,1.7c1.27,0,2.55-0.29,3.84-0.86C782.85,179,784.17,178.13,785.53,176.96z M778.86,160.76l1.37-0.79
		c0.95-0.56,1.66-1.2,2.13-1.94c0.47-0.74,0.71-1.56,0.71-2.47c0-1.05-0.32-1.91-0.96-2.57c-0.64-0.67-1.48-1-2.51-1
		c-1.13,0-2.05,0.34-2.74,1.01c-0.69,0.68-1.04,1.55-1.04,2.61c0,0.52,0.1,1.03,0.29,1.52c0.19,0.49,0.49,0.96,0.9,1.39
		L778.86,160.76z"/>
	<path d="M817.02,177.01l4.82-2.23c0.46,1.66,1.29,2.92,2.51,3.79c1.22,0.87,2.77,1.31,4.67,1.31c1.79,0,3.22-0.5,4.27-1.5
		c1.06-1,1.58-2.33,1.58-4.01c0-2.18-1.81-4.12-5.43-5.83c-0.51-0.25-0.9-0.44-1.17-0.56c-4.09-1.99-6.82-3.8-8.18-5.41
		c-1.36-1.61-2.04-3.59-2.04-5.92c0-3.03,1.03-5.48,3.08-7.35c2.05-1.88,4.75-2.81,8.08-2.81c2.74,0,5.03,0.53,6.87,1.58
		c1.84,1.06,3.12,2.57,3.83,4.55l-4.72,2.43c-0.74-1.17-1.56-2.02-2.45-2.56c-0.89-0.54-1.91-0.81-3.06-0.81
		c-1.62,0-2.91,0.42-3.87,1.27s-1.43,1.98-1.43,3.4c0,2.23,2.1,4.31,6.29,6.24c0.32,0.15,0.57,0.27,0.76,0.35
		c3.67,1.69,6.19,3.34,7.56,4.96c1.37,1.61,2.05,3.63,2.05,6.05c0,3.52-1.11,6.31-3.32,8.38c-2.21,2.07-5.21,3.11-8.97,3.11
		c-3.16,0-5.75-0.73-7.77-2.18C818.97,181.8,817.64,179.72,817.02,177.01z"/>
	<path d="M852.51,160.4v13.54c0,2.33,0.48,4.01,1.44,5.02c0.96,1.01,2.53,1.52,4.69,1.52c2.16,0,3.73-0.51,4.69-1.52
		c0.96-1.01,1.44-2.69,1.44-5.02V160.4h5.5v11.89c0,4.6-0.92,7.94-2.76,10.01c-1.84,2.08-4.78,3.12-8.82,3.12
		c-4.11,0-7.08-1.03-8.92-3.09c-1.84-2.06-2.76-5.41-2.76-10.04V160.4H852.51z"/>
	<path d="M877.71,195.75V160.4h5.5v3.93c0.64-1.52,1.67-2.7,3.08-3.52c1.41-0.83,3.1-1.24,5.06-1.24c3.2,0,5.79,1.18,7.77,3.54
		c1.99,2.36,2.98,5.46,2.98,9.29c0,4.04-0.98,7.22-2.93,9.55c-1.95,2.32-4.63,3.49-8.02,3.49c-1.69,0-3.19-0.34-4.5-1.01
		s-2.46-1.71-3.44-3.09v14.43H877.71z M883.04,172.35c0,2.48,0.62,4.47,1.86,5.96c1.24,1.49,2.88,2.23,4.91,2.23
		c2.08,0,3.69-0.69,4.83-2.08c1.14-1.39,1.71-3.36,1.71-5.91c0-2.54-0.6-4.52-1.79-5.95c-1.19-1.43-2.83-2.14-4.91-2.14
		s-3.7,0.69-4.87,2.08C883.62,167.93,883.04,169.86,883.04,172.35z"/>
	<path d="M907.94,195.75V160.4h5.5v3.93c0.64-1.52,1.67-2.7,3.08-3.52c1.41-0.83,3.1-1.24,5.06-1.24c3.2,0,5.79,1.18,7.77,3.54
		c1.99,2.36,2.98,5.46,2.98,9.29c0,4.04-0.98,7.22-2.93,9.55c-1.95,2.32-4.63,3.49-8.02,3.49c-1.69,0-3.19-0.34-4.5-1.01
		s-2.46-1.71-3.44-3.09v14.43H907.94z M913.26,172.35c0,2.48,0.62,4.47,1.86,5.96c1.24,1.49,2.88,2.23,4.91,2.23
		c2.08,0,3.69-0.69,4.83-2.08c1.14-1.39,1.71-3.36,1.71-5.91c0-2.54-0.6-4.52-1.79-5.95c-1.19-1.43-2.83-2.14-4.91-2.14
		s-3.7,0.69-4.87,2.08C913.84,167.93,913.26,169.86,913.26,172.35z"/>
	<path d="M943.66,164.23c0.59-1.59,1.37-2.76,2.35-3.52c0.97-0.76,2.18-1.14,3.61-1.14c0.78,0,1.54,0.09,2.29,0.28
		c0.75,0.19,1.49,0.46,2.22,0.81l-1.98,4.67c-0.47-0.34-0.99-0.59-1.53-0.75c-0.55-0.16-1.16-0.24-1.84-0.24
		c-1.83,0-3.14,0.73-3.93,2.19c-0.79,1.46-1.19,3.92-1.19,7.37v10.55h-5.5v-24.09h5.5V164.23z"/>
	<path d="M980.42,173.23h-19.22c0.13,2.25,0.8,4,2,5.26c1.2,1.26,2.8,1.89,4.79,1.89c1.77,0,3.25-0.37,4.44-1.12
		c1.18-0.74,2.21-1.94,3.09-3.6l4.64,2.59c-1.35,2.42-3.03,4.22-5.02,5.4c-1.99,1.18-4.34,1.77-7.02,1.77
		c-3.85,0-6.92-1.17-9.2-3.52c-2.28-2.35-3.42-5.48-3.42-9.41c0-3.77,1.18-6.87,3.54-9.29c2.36-2.43,5.39-3.64,9.09-3.64
		c3.87,0,6.89,1.11,9.05,3.32c2.16,2.21,3.25,5.32,3.25,9.31V173.23z M974.72,169.53c-0.22-1.72-0.88-3.04-1.98-3.94
		c-1.1-0.9-2.6-1.36-4.51-1.36c-1.81,0-3.26,0.44-4.36,1.32c-1.1,0.88-1.87,2.21-2.31,3.98H974.72z"/>
	<path d="M983.39,180.08l4.56-2.48c0.34,1.2,0.96,2.11,1.88,2.74c0.91,0.63,2.09,0.94,3.52,0.94c1.23,0,2.2-0.28,2.9-0.85
		c0.7-0.57,1.05-1.34,1.05-2.32c0-1.3-1.25-2.42-3.75-3.35c-0.85-0.3-1.5-0.56-1.95-0.76c-2.57-1.06-4.37-2.15-5.39-3.25
		c-1.02-1.1-1.53-2.43-1.53-4.01c0-2.15,0.84-3.89,2.52-5.22c1.68-1.33,3.91-2,6.68-2c1.86,0,3.45,0.34,4.78,1.03
		s2.29,1.66,2.9,2.93l-3.91,2.69c-0.29-0.76-0.79-1.36-1.51-1.81c-0.72-0.45-1.55-0.67-2.5-0.67c-1.05,0-1.89,0.25-2.52,0.75
		s-0.95,1.16-0.95,1.99c0,1.25,1.42,2.39,4.26,3.42c0.9,0.32,1.59,0.58,2.08,0.79c2.21,0.88,3.8,1.87,4.75,2.98
		c0.96,1.11,1.43,2.49,1.43,4.15c0,2.4-0.87,4.28-2.61,5.64c-1.74,1.36-4.14,2.04-7.2,2.04c-2.35,0-4.3-0.44-5.86-1.32
		C985.49,183.23,984.27,181.89,983.39,180.08z"/>
	<path d="M1005.5,180.08l4.56-2.48c0.34,1.2,0.96,2.11,1.88,2.74c0.91,0.63,2.09,0.94,3.52,0.94c1.23,0,2.2-0.28,2.9-0.85
		c0.7-0.57,1.05-1.34,1.05-2.32c0-1.3-1.25-2.42-3.75-3.35c-0.85-0.3-1.5-0.56-1.95-0.76c-2.57-1.06-4.37-2.15-5.39-3.25
		c-1.02-1.1-1.53-2.43-1.53-4.01c0-2.15,0.84-3.89,2.52-5.22c1.68-1.33,3.91-2,6.68-2c1.86,0,3.45,0.34,4.78,1.03
		s2.29,1.66,2.9,2.93l-3.91,2.69c-0.29-0.76-0.79-1.36-1.51-1.81c-0.72-0.45-1.55-0.67-2.5-0.67c-1.05,0-1.89,0.25-2.52,0.75
		s-0.95,1.16-0.95,1.99c0,1.25,1.42,2.39,4.26,3.42c0.9,0.32,1.59,0.58,2.08,0.79c2.21,0.88,3.8,1.87,4.75,2.98
		c0.96,1.11,1.43,2.49,1.43,4.15c0,2.4-0.87,4.28-2.61,5.64c-1.74,1.36-4.14,2.04-7.2,2.04c-2.35,0-4.3-0.44-5.86-1.32
		C1007.59,183.23,1006.38,181.89,1005.5,180.08z"/>
	<path d="M1028.6,172.45c0-1.76,0.33-3.42,1-4.98c0.67-1.56,1.63-2.95,2.88-4.17c1.23-1.2,2.65-2.12,4.26-2.76
		c1.61-0.64,3.29-0.96,5.05-0.96c1.81,0,3.51,0.32,5.11,0.96c1.6,0.64,3.03,1.59,4.3,2.84c1.27,1.23,2.23,2.63,2.89,4.18
		c0.66,1.56,0.99,3.19,0.99,4.89c0,1.77-0.33,3.44-0.98,5c-0.65,1.56-1.6,2.93-2.85,4.13c-1.32,1.27-2.78,2.23-4.39,2.88
		s-3.3,0.98-5.07,0.98c-1.74,0-3.42-0.33-5.02-0.98c-1.61-0.65-3.03-1.59-4.29-2.83c-1.27-1.25-2.23-2.65-2.89-4.21
		S1028.6,174.21,1028.6,172.45z M1049.26,172.5c0-2.23-0.72-4.12-2.16-5.67c-1.44-1.55-3.2-2.32-5.27-2.32
		c-2.06,0-3.82,0.77-5.26,2.32c-1.45,1.55-2.17,3.44-2.17,5.67c0,2.23,0.72,4.12,2.17,5.67c1.45,1.55,3.2,2.32,5.26,2.32
		c2.06,0,3.82-0.77,5.26-2.32C1048.54,176.62,1049.26,174.73,1049.26,172.5z"/>
	<path d="M1066.4,164.23c0.59-1.59,1.37-2.76,2.35-3.52c0.97-0.76,2.18-1.14,3.61-1.14c0.78,0,1.54,0.09,2.29,0.28
		c0.75,0.19,1.49,0.46,2.22,0.81l-1.98,4.67c-0.47-0.34-0.99-0.59-1.53-0.75c-0.55-0.16-1.16-0.24-1.84-0.24
		c-1.83,0-3.14,0.73-3.93,2.19c-0.79,1.46-1.19,3.92-1.19,7.37v10.55h-5.5v-24.09h5.5V164.23z"/>
	<path d="M1116.7,165.42h14.71c0,0.25,0.01,0.61,0.03,1.06c0.05,1.2,0.08,2.01,0.08,2.43c0,5.22-1.5,9.28-4.49,12.17
		c-2.99,2.89-7.21,4.34-12.65,4.34c-3.04,0-5.76-0.45-8.14-1.34c-2.38-0.9-4.47-2.25-6.26-4.06c-1.76-1.79-3.11-3.9-4.04-6.31
		s-1.41-5-1.41-7.76c0-2.81,0.48-5.39,1.43-7.76c0.96-2.37,2.37-4.45,4.25-6.26c1.81-1.77,3.93-3.13,6.36-4.06
		c2.43-0.93,5.04-1.39,7.81-1.39c2.92,0,5.54,0.53,7.85,1.6c2.31,1.06,4.37,2.7,6.17,4.89l-4.41,3.32
		c-1.25-1.45-2.66-2.54-4.23-3.25s-3.33-1.06-5.27-1.06c-4.02,0-7.31,1.29-9.85,3.87c-2.54,2.58-3.82,5.93-3.82,10.05
		c0,4.19,1.27,7.59,3.82,10.21c2.54,2.61,5.84,3.92,9.9,3.92c3.45,0,6.16-0.8,8.14-2.41c1.98-1.61,2.97-3.79,2.97-6.57v-0.53h-8.92
		V165.42z"/>
	<path d="M1142.89,164.23c0.59-1.59,1.37-2.76,2.35-3.52c0.97-0.76,2.18-1.14,3.61-1.14c0.78,0,1.54,0.09,2.29,0.28
		c0.75,0.19,1.49,0.46,2.22,0.81l-1.98,4.67c-0.47-0.34-0.99-0.59-1.53-0.75c-0.55-0.16-1.16-0.24-1.84-0.24
		c-1.83,0-3.14,0.73-3.93,2.19c-0.79,1.46-1.19,3.92-1.19,7.37v10.55h-5.5v-24.09h5.5V164.23z"/>
	<path d="M1156.03,150.01c0-0.93,0.34-1.73,1.03-2.41c0.68-0.68,1.5-1.01,2.45-1.01c0.98,0,1.8,0.33,2.45,0.98
		c0.65,0.65,0.98,1.47,0.98,2.45c0,0.98-0.33,1.8-0.99,2.47c-0.66,0.67-1.47,1-2.43,1c-0.95,0-1.76-0.34-2.45-1.03
		S1156.03,150.96,1156.03,150.01z M1156.76,184.44V160.4h5.5v24.04H1156.76z"/>
	<path d="M1187.24,145.14h5.5v39.3h-5.5v-3.12c-0.98,1.39-2.13,2.42-3.44,3.09s-2.81,1.01-4.5,1.01c-3.4,0-6.07-1.16-8.02-3.49
		c-1.95-2.32-2.93-5.51-2.93-9.55c0-3.84,1-6.93,2.99-9.29c1.99-2.36,4.6-3.54,7.81-3.54c1.96,0,3.64,0.41,5.03,1.23
		s2.41,2,3.05,3.54V145.14z M1187.39,172.35c0-2.48-0.58-4.42-1.74-5.81c-1.16-1.39-2.78-2.08-4.86-2.08s-3.71,0.71-4.91,2.14
		s-1.79,3.41-1.79,5.95c0,2.55,0.57,4.52,1.72,5.91s2.77,2.08,4.87,2.08c1.99,0,3.61-0.75,4.84-2.24
		C1186.77,176.8,1187.39,174.81,1187.39,172.35z"/>
	<path d="M499.68,246.75v-7.53h-17.8l21.6-29.97h1.7v25.76h4.51v4.21h-4.51v7.53H499.68z M499.84,221.67l-9.46,13.34h9.31v-9.66
		c0-0.51,0.01-1.07,0.04-1.7C499.75,223.03,499.78,222.37,499.84,221.67z"/>
	<path d="M517.76,226.59c0-0.9,0.33-1.66,0.98-2.31c0.65-0.64,1.43-0.96,2.35-0.96c0.93,0,1.72,0.31,2.36,0.94
		c0.64,0.63,0.96,1.4,0.96,2.33c0,0.93-0.32,1.72-0.96,2.36c-0.64,0.64-1.43,0.96-2.36,0.96c-0.93,0-1.72-0.32-2.36-0.96
		C518.08,228.31,517.76,227.52,517.76,226.59z M517.76,243.94c0-0.9,0.33-1.67,0.98-2.33c0.65-0.66,1.43-0.99,2.35-0.99
		c0.93,0,1.72,0.32,2.36,0.96c0.64,0.64,0.96,1.43,0.96,2.36c0,0.91-0.32,1.69-0.96,2.32c-0.64,0.63-1.43,0.95-2.36,0.95
		c-0.93,0-1.72-0.32-2.36-0.95C518.08,245.62,517.76,244.85,517.76,243.94z"/>
	<path d="M549.58,246.75v-37.12h20.71v5.12h-14.68v9.25h14.68v5.3h-14.68v17.44H549.58z"/>
	<path d="M575.9,212.32c0-0.93,0.34-1.73,1.03-2.41c0.68-0.68,1.5-1.01,2.45-1.01c0.98,0,1.8,0.33,2.45,0.98
		c0.65,0.65,0.98,1.47,0.98,2.45c0,0.98-0.33,1.8-0.99,2.47c-0.66,0.67-1.47,1-2.43,1c-0.95,0-1.76-0.34-2.45-1.03
		S575.9,213.27,575.9,212.32z M576.63,246.75v-24.04h5.5v24.04H576.63z"/>
	<path d="M590.25,246.75v-39.3h5.5v39.3H590.25z"/>
	<path d="M626.23,246.75h-5.5v-3.12c-0.98,1.39-2.13,2.42-3.44,3.09c-1.31,0.68-2.81,1.01-4.5,1.01c-3.4,0-6.07-1.16-8.02-3.49
		c-1.95-2.32-2.93-5.51-2.93-9.55c0-3.84,1-6.93,2.99-9.29s4.6-3.54,7.81-3.54c1.96,0,3.64,0.41,5.03,1.23s2.41,2,3.05,3.54v-3.93
		h5.5V246.75z M620.88,234.66c0-2.48-0.58-4.42-1.74-5.81c-1.16-1.39-2.78-2.08-4.86-2.08c-2.08,0-3.71,0.71-4.91,2.14
		s-1.79,3.41-1.79,5.95c0,2.55,0.57,4.52,1.72,5.91c1.15,1.39,2.77,2.08,4.87,2.08c1.98,0,3.59-0.75,4.83-2.26
		C620.26,239.09,620.88,237.11,620.88,234.66z"/>
	<path d="M639.33,246.75h-5.5v-24.04h5.17v3.93c1.1-1.67,2.34-2.89,3.74-3.66c1.39-0.77,3.04-1.15,4.93-1.15
		c1.88,0,3.43,0.39,4.67,1.18s2.17,1.98,2.81,3.59c1.27-1.66,2.62-2.86,4.04-3.63c1.43-0.76,3.06-1.14,4.88-1.14
		c1.59,0,2.97,0.29,4.16,0.88c1.18,0.58,2.1,1.43,2.76,2.55c0.3,0.52,0.53,1.15,0.67,1.88c0.14,0.73,0.21,1.77,0.21,3.12v1.93v14.58
		h-5.5V234.4c0-3.23-0.34-5.35-1.03-6.38c-0.68-1.02-1.91-1.53-3.66-1.53c-2.16,0-3.71,0.69-4.63,2.07s-1.38,3.79-1.38,7.24v10.95
		h-5.55V234.4c0-2.97-0.36-5.04-1.08-6.19c-0.72-1.15-1.96-1.72-3.71-1.72c-1.08,0-2.07,0.25-2.97,0.73
		c-0.9,0.49-1.61,1.17-2.13,2.03c-0.34,0.56-0.58,1.24-0.71,2.05c-0.14,0.81-0.2,2.31-0.2,4.49V246.75z"/>
	<path d="M702.42,235.54H683.2c0.13,2.25,0.8,4,2,5.26c1.2,1.26,2.8,1.89,4.79,1.89c1.77,0,3.25-0.37,4.44-1.12
		c1.18-0.74,2.21-1.94,3.09-3.6l4.64,2.59c-1.35,2.42-3.03,4.22-5.02,5.4c-1.99,1.18-4.34,1.78-7.02,1.78
		c-3.85,0-6.92-1.17-9.2-3.52c-2.28-2.35-3.42-5.48-3.42-9.41c0-3.77,1.18-6.87,3.54-9.29c2.36-2.43,5.39-3.64,9.09-3.64
		c3.87,0,6.89,1.11,9.05,3.32c2.16,2.21,3.25,5.32,3.25,9.31V235.54z M696.71,231.84c-0.22-1.72-0.88-3.04-1.98-3.94
		c-1.1-0.9-2.6-1.36-4.51-1.36c-1.81,0-3.26,0.44-4.36,1.32c-1.1,0.88-1.87,2.21-2.31,3.98H696.71z"/>
	<path d="M708.14,246.75v-24.04h5.17v3.93c1.1-1.66,2.39-2.86,3.88-3.63s3.3-1.14,5.43-1.14c1.79,0,3.32,0.28,4.58,0.85
		c1.26,0.57,2.24,1.41,2.95,2.52c0.42,0.66,0.73,1.43,0.91,2.31c0.19,0.88,0.28,2.42,0.28,4.61v14.58h-5.55V234.4
		c0-3.16-0.38-5.26-1.15-6.3s-2.13-1.56-4.09-1.56c-1.28,0-2.43,0.24-3.44,0.71c-1.01,0.47-1.8,1.14-2.37,2
		c-0.41,0.57-0.69,1.31-0.85,2.22c-0.16,0.9-0.24,2.35-0.24,4.32v10.95H708.14z"/>
	<path d="M739.97,246.75v-19.22h-4.21v-4.82h4.21v-9.1h5.5v9.1h4.21v4.82h-4.21v19.22H739.97z"/>
	<path d="M487.18,300.19c0.86,1.59,1.97,2.81,3.32,3.65c1.35,0.84,2.86,1.27,4.51,1.27c2.45,0,4.44-0.78,5.96-2.35
		c1.52-1.56,2.28-3.62,2.28-6.17c0-2.45-0.8-4.45-2.4-5.98s-3.69-2.31-6.27-2.31c-1.56,0-3,0.27-4.32,0.8
		c-1.33,0.53-2.5,1.32-3.51,2.37l-1.5-0.33l4.61-18.84h17.55v4.89H493.5l-2.18,8.19c1.01-0.42,1.99-0.74,2.94-0.94
		c0.95-0.2,1.89-0.3,2.84-0.3c3.53,0,6.41,1.13,8.62,3.4c2.21,2.26,3.32,5.21,3.32,8.85c0,4.16-1.29,7.48-3.88,9.95
		c-2.59,2.48-6.05,3.71-10.4,3.71c-2.57,0-4.8-0.44-6.69-1.33c-1.89-0.89-3.52-2.26-4.89-4.12L487.18,300.19z"/>
	<path d="M517.76,288.9c0-0.9,0.33-1.67,0.98-2.31c0.65-0.64,1.43-0.96,2.35-0.96c0.93,0,1.72,0.31,2.36,0.94
		c0.64,0.63,0.96,1.4,0.96,2.33s-0.32,1.72-0.96,2.36c-0.64,0.64-1.43,0.96-2.36,0.96c-0.93,0-1.72-0.32-2.36-0.96
		C518.08,290.62,517.76,289.83,517.76,288.9z M517.76,306.25c0-0.9,0.33-1.67,0.98-2.33c0.65-0.66,1.43-0.99,2.35-0.99
		c0.93,0,1.72,0.32,2.36,0.96c0.64,0.64,0.96,1.43,0.96,2.36c0,0.91-0.32,1.69-0.96,2.32c-0.64,0.63-1.43,0.95-2.36,0.95
		c-0.93,0-1.72-0.32-2.36-0.95C518.08,307.93,517.76,307.16,517.76,306.25z"/>
	<path d="M549.58,309.06v-37.12h20.71v5.12h-14.68v9.25h14.68v5.3h-14.68v17.44H549.58z"/>
	<path d="M575.9,274.63c0-0.93,0.34-1.73,1.03-2.41c0.68-0.68,1.5-1.01,2.45-1.01c0.98,0,1.8,0.33,2.45,0.98
		c0.65,0.65,0.98,1.47,0.98,2.45s-0.33,1.8-0.99,2.47s-1.47,1-2.43,1c-0.95,0-1.76-0.34-2.45-1.03S575.9,275.58,575.9,274.63z
		 M576.63,309.06v-24.04h5.5v24.04H576.63z"/>
	<path d="M590.25,309.06v-39.3h5.5v39.3H590.25z"/>
	<path d="M626.23,309.06h-5.5v-3.12c-0.98,1.39-2.13,2.42-3.44,3.09c-1.31,0.68-2.81,1.01-4.5,1.01c-3.4,0-6.07-1.16-8.02-3.49
		c-1.95-2.32-2.93-5.51-2.93-9.55c0-3.84,1-6.93,2.99-9.29c1.99-2.36,4.6-3.54,7.81-3.54c1.96,0,3.64,0.41,5.03,1.23
		s2.41,2,3.05,3.54v-3.93h5.5V309.06z M620.88,296.97c0-2.49-0.58-4.42-1.74-5.81c-1.16-1.39-2.78-2.08-4.86-2.08
		c-2.08,0-3.71,0.71-4.91,2.14c-1.19,1.43-1.79,3.41-1.79,5.95c0,2.55,0.57,4.52,1.72,5.91c1.15,1.39,2.77,2.08,4.87,2.08
		c1.98,0,3.59-0.75,4.83-2.26C620.26,301.4,620.88,299.42,620.88,296.97z"/>
	<path d="M639.33,309.06h-5.5v-24.04h5.17v3.93c1.1-1.67,2.34-2.89,3.74-3.66c1.39-0.77,3.04-1.15,4.93-1.15
		c1.88,0,3.43,0.39,4.67,1.18s2.17,1.98,2.81,3.59c1.27-1.66,2.62-2.87,4.04-3.63c1.43-0.76,3.06-1.14,4.88-1.14
		c1.59,0,2.97,0.29,4.16,0.87c1.18,0.58,2.1,1.43,2.76,2.55c0.3,0.52,0.53,1.15,0.67,1.88c0.14,0.73,0.21,1.77,0.21,3.12v1.93v14.58
		h-5.5v-12.35c0-3.23-0.34-5.35-1.03-6.38s-1.91-1.53-3.66-1.53c-2.16,0-3.71,0.69-4.63,2.07s-1.38,3.79-1.38,7.24v10.95h-5.55
		v-12.35c0-2.97-0.36-5.04-1.08-6.19c-0.72-1.15-1.96-1.72-3.71-1.72c-1.08,0-2.07,0.25-2.97,0.74c-0.9,0.49-1.61,1.17-2.13,2.03
		c-0.34,0.56-0.58,1.24-0.71,2.05c-0.14,0.81-0.2,2.31-0.2,4.49V309.06z"/>
	<path d="M702.42,297.85H683.2c0.13,2.25,0.8,4,2,5.26c1.2,1.26,2.8,1.89,4.79,1.89c1.77,0,3.25-0.37,4.44-1.12
		c1.18-0.74,2.21-1.94,3.09-3.6l4.64,2.59c-1.35,2.42-3.03,4.22-5.02,5.4s-4.34,1.78-7.02,1.78c-3.85,0-6.92-1.17-9.2-3.52
		s-3.42-5.49-3.42-9.41c0-3.77,1.18-6.87,3.54-9.29c2.36-2.42,5.39-3.64,9.09-3.64c3.87,0,6.89,1.11,9.05,3.32
		c2.16,2.21,3.25,5.32,3.25,9.3V297.85z M696.71,294.15c-0.22-1.72-0.88-3.04-1.98-3.94c-1.1-0.9-2.6-1.36-4.51-1.36
		c-1.81,0-3.26,0.44-4.36,1.32c-1.1,0.88-1.87,2.21-2.31,3.98H696.71z"/>
	<path d="M708.14,309.06v-24.04h5.17v3.93c1.1-1.66,2.39-2.87,3.88-3.63s3.3-1.14,5.43-1.14c1.79,0,3.32,0.28,4.58,0.85
		c1.26,0.57,2.24,1.41,2.95,2.52c0.42,0.66,0.73,1.43,0.91,2.31c0.19,0.88,0.28,2.42,0.28,4.61v14.58h-5.55v-12.35
		c0-3.16-0.38-5.26-1.15-6.3c-0.77-1.04-2.13-1.56-4.09-1.56c-1.28,0-2.43,0.24-3.44,0.71c-1.01,0.47-1.8,1.14-2.37,2
		c-0.41,0.57-0.69,1.31-0.85,2.22c-0.16,0.91-0.24,2.35-0.24,4.32v10.95H708.14z"/>
	<path d="M739.97,309.06v-19.22h-4.21v-4.82h4.21v-9.1h5.5v9.1h4.21v4.82h-4.21v19.22H739.97z"/>
	<path d="M493.19,348.83c0.83-0.39,1.64-0.68,2.45-0.89c0.8-0.2,1.6-0.3,2.4-0.3c3.31,0,6.04,1.12,8.19,3.37s3.22,5.12,3.22,8.62
		c0,3.82-1.2,6.9-3.61,9.23c-2.41,2.33-5.58,3.5-9.52,3.5c-3.69,0-6.65-1.14-8.89-3.42c-2.24-2.28-3.36-5.28-3.36-9
		c0-3.97,2.7-9.76,8.11-17.37l0.66-0.89l6.49-9.2l4.61,2.33L493.19,348.83z M489.82,359.99c0,2.21,0.62,4,1.85,5.35
		s2.83,2.03,4.79,2.03c2.21,0,3.96-0.66,5.22-1.98c1.27-1.32,1.9-3.12,1.9-5.4c0-2.32-0.63-4.13-1.88-5.44
		c-1.25-1.31-2.98-1.96-5.2-1.96c-1.98,0-3.59,0.68-4.83,2.05S489.82,357.79,489.82,359.99z"/>
	<path d="M517.76,351.21c0-0.9,0.33-1.67,0.98-2.31c0.65-0.64,1.43-0.96,2.35-0.96c0.93,0,1.72,0.31,2.36,0.94
		c0.64,0.63,0.96,1.4,0.96,2.33s-0.32,1.72-0.96,2.36c-0.64,0.64-1.43,0.96-2.36,0.96c-0.93,0-1.72-0.32-2.36-0.96
		C518.08,352.93,517.76,352.14,517.76,351.21z M517.76,368.56c0-0.9,0.33-1.67,0.98-2.33c0.65-0.66,1.43-0.99,2.35-0.99
		c0.93,0,1.72,0.32,2.36,0.96c0.64,0.64,0.96,1.43,0.96,2.36c0,0.91-0.32,1.69-0.96,2.32c-0.64,0.63-1.43,0.95-2.36,0.95
		c-0.93,0-1.72-0.32-2.36-0.95C518.08,370.24,517.76,369.47,517.76,368.56z"/>
	<path d="M549.58,371.37v-38.59l23.58,22.69c0.64,0.64,1.29,1.33,1.95,2.05c0.66,0.73,1.35,1.55,2.08,2.46v-25.73h5.58v38.56
		l-24.06-23.1c-0.64-0.63-1.26-1.28-1.86-1.98c-0.6-0.69-1.17-1.42-1.71-2.18v25.81H549.58z"/>
	<path d="M589.06,359.38c0-1.76,0.33-3.42,1-4.98c0.67-1.56,1.63-2.95,2.88-4.17c1.23-1.2,2.65-2.12,4.26-2.76
		c1.61-0.64,3.29-0.96,5.05-0.96c1.81,0,3.51,0.32,5.11,0.96c1.6,0.64,3.03,1.59,4.3,2.84c1.27,1.23,2.23,2.63,2.89,4.18
		c0.66,1.56,0.99,3.19,0.99,4.89c0,1.77-0.33,3.44-0.98,4.99c-0.65,1.56-1.6,2.93-2.85,4.13c-1.32,1.27-2.78,2.23-4.39,2.88
		s-3.3,0.98-5.07,0.98c-1.74,0-3.41-0.33-5.02-0.98c-1.61-0.65-3.03-1.59-4.28-2.83c-1.27-1.25-2.23-2.65-2.89-4.21
		C589.39,362.79,589.06,361.14,589.06,359.38z M609.72,359.43c0-2.23-0.72-4.12-2.16-5.67c-1.44-1.55-3.2-2.32-5.27-2.32
		c-2.06,0-3.82,0.77-5.26,2.32c-1.45,1.55-2.17,3.44-2.17,5.67c0,2.23,0.72,4.12,2.17,5.67c1.44,1.55,3.2,2.32,5.26,2.32
		c2.06,0,3.82-0.77,5.26-2.32C609,363.55,609.72,361.66,609.72,359.43z"/>
	<path d="M622.65,371.37v-19.22h-4.21v-4.82h4.21v-9.1h5.5v9.1h4.21v4.82h-4.21v19.22H622.65z"/>
	<path d="M683.02,343.28c-1.71-1.45-3.51-2.54-5.41-3.27c-1.9-0.73-3.9-1.09-6-1.09c-4.06,0-7.36,1.3-9.9,3.9
		c-2.54,2.6-3.82,5.98-3.82,10.12c0,4.01,1.24,7.31,3.71,9.91c2.48,2.6,5.6,3.9,9.37,3.9c2.2,0,4.29-0.39,6.27-1.17
		s3.89-1.95,5.72-3.52v6.82c-1.62,1.17-3.39,2.04-5.3,2.61c-1.91,0.57-3.98,0.86-6.21,0.86c-2.84,0-5.46-0.47-7.87-1.39
		c-2.41-0.93-4.53-2.3-6.35-4.11c-1.81-1.78-3.2-3.87-4.17-6.28c-0.97-2.41-1.46-4.97-1.46-7.7c0-2.72,0.49-5.28,1.46-7.67
		c0.97-2.39,2.38-4.49,4.22-6.3c1.84-1.83,3.96-3.21,6.34-4.15c2.38-0.94,4.96-1.41,7.73-1.41c2.18,0,4.26,0.32,6.24,0.95
		c1.98,0.63,3.9,1.59,5.75,2.88L683.02,343.28z"/>
	<path d="M688.27,359.38c0-1.76,0.33-3.42,1-4.98c0.67-1.56,1.63-2.95,2.88-4.17c1.23-1.2,2.65-2.12,4.26-2.76
		c1.61-0.64,3.29-0.96,5.05-0.96c1.81,0,3.51,0.32,5.11,0.96c1.6,0.64,3.03,1.59,4.3,2.84c1.27,1.23,2.23,2.63,2.89,4.18
		c0.66,1.56,0.99,3.19,0.99,4.89c0,1.77-0.33,3.44-0.98,4.99c-0.65,1.56-1.6,2.93-2.85,4.13c-1.32,1.27-2.78,2.23-4.39,2.88
		s-3.3,0.98-5.07,0.98c-1.74,0-3.42-0.33-5.02-0.98c-1.61-0.65-3.03-1.59-4.29-2.83c-1.27-1.25-2.23-2.65-2.89-4.21
		C688.6,362.79,688.27,361.14,688.27,359.38z M708.93,359.43c0-2.23-0.72-4.12-2.16-5.67c-1.44-1.55-3.2-2.32-5.27-2.32
		c-2.06,0-3.82,0.77-5.26,2.32s-2.17,3.44-2.17,5.67c0,2.23,0.72,4.12,2.17,5.67c1.45,1.55,3.2,2.32,5.26,2.32
		c2.06,0,3.82-0.77,5.26-2.32C708.21,363.55,708.93,361.66,708.93,359.43z"/>
	<path d="M720.57,371.37v-24.04h5.17v3.93c1.1-1.66,2.39-2.87,3.88-3.63s3.3-1.14,5.43-1.14c1.79,0,3.32,0.28,4.58,0.85
		c1.26,0.57,2.24,1.41,2.95,2.52c0.42,0.66,0.73,1.43,0.91,2.31c0.19,0.88,0.28,2.42,0.28,4.61v14.58h-5.55v-12.35
		c0-3.16-0.38-5.26-1.15-6.3c-0.77-1.04-2.13-1.56-4.09-1.56c-1.28,0-2.43,0.24-3.44,0.71c-1.01,0.47-1.8,1.14-2.37,2
		c-0.41,0.57-0.69,1.31-0.85,2.22c-0.16,0.91-0.24,2.35-0.24,4.32v10.95H720.57z"/>
	<path d="M751.09,371.37v-24.04h5.17v3.93c1.1-1.66,2.39-2.87,3.88-3.63s3.3-1.14,5.43-1.14c1.79,0,3.32,0.28,4.58,0.85
		c1.26,0.57,2.24,1.41,2.95,2.52c0.42,0.66,0.73,1.43,0.91,2.31c0.19,0.88,0.28,2.42,0.28,4.61v14.58h-5.55v-12.35
		c0-3.16-0.38-5.26-1.15-6.3c-0.77-1.04-2.13-1.56-4.09-1.56c-1.28,0-2.43,0.24-3.44,0.71c-1.01,0.47-1.8,1.14-2.37,2
		c-0.41,0.57-0.69,1.31-0.85,2.22c-0.16,0.91-0.24,2.35-0.24,4.32v10.95H751.09z"/>
	<path d="M804.77,360.16h-19.22c0.13,2.25,0.8,4,2,5.26c1.2,1.26,2.8,1.89,4.79,1.89c1.77,0,3.25-0.37,4.44-1.12
		c1.18-0.74,2.21-1.94,3.09-3.6l4.64,2.59c-1.35,2.42-3.03,4.22-5.02,5.4s-4.34,1.78-7.02,1.78c-3.85,0-6.92-1.17-9.2-3.52
		s-3.42-5.49-3.42-9.41c0-3.77,1.18-6.87,3.54-9.29c2.36-2.42,5.39-3.64,9.09-3.64c3.87,0,6.89,1.11,9.05,3.32
		c2.16,2.21,3.25,5.32,3.25,9.3V360.16z M799.07,356.46c-0.22-1.72-0.88-3.04-1.98-3.94c-1.1-0.9-2.6-1.36-4.51-1.36
		c-1.81,0-3.26,0.44-4.36,1.32c-1.1,0.88-1.87,2.21-2.31,3.98H799.07z"/>
	<path d="M828.45,354.18c-0.85-0.93-1.83-1.64-2.95-2.13c-1.12-0.49-2.34-0.73-3.64-0.73c-2.25,0-4.05,0.73-5.4,2.18
		c-1.35,1.45-2.03,3.38-2.03,5.78c0,2.5,0.68,4.47,2.04,5.89c1.36,1.43,3.24,2.14,5.64,2.14c1.33,0,2.53-0.25,3.58-0.75
		c1.05-0.5,1.97-1.25,2.76-2.27v6.34c-1.01,0.58-2.1,1.01-3.26,1.29c-1.16,0.29-2.39,0.43-3.69,0.43c-3.77,0-6.84-1.2-9.22-3.6
		c-2.38-2.4-3.56-5.51-3.56-9.33c0-3.87,1.23-6.99,3.69-9.37c2.46-2.37,5.67-3.56,9.65-3.56c1.25,0,2.4,0.12,3.45,0.37
		s2.03,0.62,2.94,1.13V354.18z"/>
	<path d="M835.37,371.37v-19.22h-4.21v-4.82h4.21v-9.1h5.5v9.1h4.21v4.82h-4.21v19.22H835.37z"/>
	<path d="M872.97,360.16h-19.22c0.13,2.25,0.8,4,2,5.26c1.2,1.26,2.8,1.89,4.79,1.89c1.77,0,3.25-0.37,4.44-1.12
		c1.18-0.74,2.21-1.94,3.09-3.6l4.64,2.59c-1.35,2.42-3.03,4.22-5.02,5.4s-4.34,1.78-7.02,1.78c-3.85,0-6.92-1.17-9.2-3.52
		s-3.42-5.49-3.42-9.41c0-3.77,1.18-6.87,3.54-9.29c2.36-2.42,5.39-3.64,9.09-3.64c3.87,0,6.89,1.11,9.05,3.32
		c2.16,2.21,3.25,5.32,3.25,9.3V360.16z M867.27,356.46c-0.22-1.72-0.88-3.04-1.98-3.94c-1.1-0.9-2.6-1.36-4.51-1.36
		c-1.81,0-3.26,0.44-4.36,1.32c-1.1,0.88-1.87,2.21-2.31,3.98H867.27z"/>
	<path d="M895.82,332.07h5.5v39.3h-5.5v-3.12c-0.98,1.39-2.13,2.42-3.44,3.09s-2.81,1.01-4.5,1.01c-3.4,0-6.07-1.16-8.02-3.49
		s-2.93-5.51-2.93-9.55c0-3.84,1-6.93,2.99-9.29c1.99-2.36,4.6-3.54,7.81-3.54c1.96,0,3.64,0.41,5.03,1.23s2.41,2,3.05,3.54V332.07z
		 M895.97,359.28c0-2.49-0.58-4.42-1.74-5.81c-1.16-1.39-2.78-2.08-4.86-2.08s-3.71,0.71-4.91,2.14c-1.19,1.43-1.79,3.41-1.79,5.95
		c0,2.55,0.57,4.52,1.72,5.91s2.77,2.08,4.87,2.08c1.99,0,3.61-0.75,4.84-2.24C895.35,363.73,895.97,361.74,895.97,359.28z"/>
	<path d="M487.01,432.9l15.16-31.21H485v-4.77h25.58l-18.69,38.16L487.01,432.9z"/>
	<path d="M517.76,413.53c0-0.9,0.33-1.67,0.98-2.31c0.65-0.64,1.43-0.96,2.35-0.96c0.93,0,1.72,0.31,2.36,0.94
		c0.64,0.63,0.96,1.4,0.96,2.33s-0.32,1.72-0.96,2.36c-0.64,0.64-1.43,0.96-2.36,0.96c-0.93,0-1.72-0.32-2.36-0.96
		C518.08,415.24,517.76,414.45,517.76,413.53z M517.76,430.87c0-0.9,0.33-1.67,0.98-2.33c0.65-0.66,1.43-0.99,2.35-0.99
		c0.93,0,1.72,0.32,2.36,0.96c0.64,0.64,0.96,1.43,0.96,2.36c0,0.91-0.32,1.69-0.96,2.32c-0.64,0.63-1.43,0.95-2.36,0.95
		c-0.93,0-1.72-0.32-2.36-0.95C518.08,432.55,517.76,431.78,517.76,430.87z"/>
	<path d="M555.23,417.02v16.66h-5.65v-37.12h9.13c2.7,0,4.69,0.15,5.97,0.44c1.28,0.3,2.39,0.78,3.33,1.46
		c1.17,0.86,2.08,2.02,2.74,3.49s0.99,3.07,0.99,4.83s-0.33,3.38-0.99,4.87c-0.66,1.49-1.57,2.65-2.74,3.5
		c-0.95,0.68-2.06,1.16-3.33,1.45c-1.28,0.29-3.27,0.43-5.97,0.43h-1.19H555.23z M555.61,412.08h1.55c3.35,0,5.58-0.36,6.69-1.09
		c1.12-0.73,1.67-2.01,1.67-3.85c0-1.98-0.6-3.37-1.79-4.18c-1.19-0.81-3.38-1.22-6.58-1.22h-1.55V412.08z"/>
	<path d="M577.01,433.68v-39.3h5.5v39.3H577.01z"/>
	<path d="M612.99,433.68h-5.5v-3.12c-0.98,1.39-2.13,2.42-3.44,3.09s-2.81,1.01-4.5,1.01c-3.4,0-6.07-1.16-8.02-3.49
		c-1.95-2.32-2.93-5.51-2.93-9.55c0-3.84,1-6.93,2.99-9.29c1.99-2.36,4.6-3.54,7.81-3.54c1.96,0,3.64,0.41,5.03,1.23
		s2.41,2,3.05,3.54v-3.93h5.5V433.68z M607.64,421.59c0-2.49-0.58-4.42-1.74-5.81c-1.16-1.39-2.78-2.08-4.86-2.08
		c-2.08,0-3.71,0.71-4.91,2.14c-1.19,1.43-1.79,3.41-1.79,5.95c0,2.55,0.57,4.52,1.72,5.91s2.77,2.08,4.87,2.08
		c1.98,0,3.59-0.75,4.83-2.26C607.02,426.02,607.64,424.04,607.64,421.59z"/>
	<path d="M621.89,433.68v-19.22h-4.21v-4.82h4.21v-9.1h5.5v9.1h4.21v4.82h-4.21v19.22H621.89z"/>
	<path d="M659.49,422.47h-19.22c0.13,2.25,0.8,4,2,5.26c1.2,1.26,2.8,1.89,4.79,1.89c1.77,0,3.25-0.37,4.44-1.12
		c1.18-0.74,2.21-1.94,3.09-3.6l4.64,2.59c-1.35,2.42-3.03,4.22-5.02,5.4s-4.34,1.78-7.02,1.78c-3.85,0-6.92-1.17-9.2-3.52
		s-3.42-5.49-3.42-9.41c0-3.77,1.18-6.87,3.54-9.29c2.36-2.42,5.39-3.64,9.09-3.64c3.87,0,6.89,1.11,9.05,3.32
		c2.16,2.21,3.25,5.32,3.25,9.3V422.47z M653.79,418.77c-0.22-1.72-0.88-3.04-1.98-3.94c-1.1-0.9-2.6-1.36-4.51-1.36
		c-1.81,0-3.26,0.44-4.36,1.32c-1.1,0.88-1.87,2.21-2.31,3.98H653.79z"/>
	<path d="M490.71,476.37c-1.84-0.79-3.19-1.83-4.06-3.12c-0.86-1.28-1.29-2.89-1.29-4.82c0-2.98,1.05-5.38,3.14-7.2
		c2.1-1.83,4.87-2.74,8.32-2.74c3.53,0,6.34,0.93,8.42,2.78s3.12,4.32,3.12,7.42c0,1.83-0.45,3.39-1.36,4.7
		c-0.9,1.31-2.24,2.3-3.99,2.98c2.06,0.68,3.68,1.87,4.84,3.59c1.17,1.72,1.75,3.74,1.75,6.07c0,3.41-1.13,6.09-3.38,8.04
		c-2.26,1.94-5.39,2.92-9.39,2.92c-3.94,0-7.04-0.97-9.31-2.92s-3.4-4.59-3.4-7.94c0-2.43,0.57-4.5,1.72-6.2
		C486.99,478.23,488.61,477.04,490.71,476.37z M496.82,492.04c2.18,0,3.89-0.57,5.12-1.71c1.23-1.14,1.85-2.72,1.85-4.73
		c0-2.03-0.62-3.62-1.85-4.77c-1.23-1.15-2.94-1.72-5.12-1.72c-2.13,0-3.81,0.58-5.05,1.75c-1.23,1.17-1.85,2.75-1.85,4.74
		c0,2.01,0.61,3.59,1.83,4.73C492.96,491.47,494.65,492.04,496.82,492.04z M496.95,463.39c-1.76,0-3.14,0.46-4.16,1.38
		c-1.01,0.92-1.52,2.18-1.52,3.76c0,1.56,0.49,2.77,1.48,3.65s2.35,1.32,4.07,1.32c1.77,0,3.16-0.43,4.15-1.31
		c0.99-0.87,1.48-2.09,1.48-3.66c0-1.61-0.49-2.86-1.47-3.78C500,463.84,498.65,463.39,496.95,463.39z"/>
	<path d="M517.76,475.84c0-0.9,0.33-1.67,0.98-2.31c0.65-0.64,1.43-0.96,2.35-0.96c0.93,0,1.72,0.31,2.36,0.94
		c0.64,0.63,0.96,1.4,0.96,2.33s-0.32,1.72-0.96,2.36c-0.64,0.64-1.43,0.96-2.36,0.96c-0.93,0-1.72-0.32-2.36-0.96
		C518.08,477.55,517.76,476.77,517.76,475.84z M517.76,493.18c0-0.9,0.33-1.67,0.98-2.33c0.65-0.66,1.43-0.99,2.35-0.99
		c0.93,0,1.72,0.32,2.36,0.96c0.64,0.64,0.96,1.43,0.96,2.36c0,0.91-0.32,1.69-0.96,2.32c-0.64,0.63-1.43,0.95-2.36,0.95
		c-0.93,0-1.72-0.32-2.36-0.95C518.08,494.86,517.76,494.09,517.76,493.18z"/>
	<path d="M549.58,495.99V457.4l23.58,22.69c0.64,0.64,1.29,1.33,1.95,2.05c0.66,0.73,1.35,1.55,2.08,2.46v-25.73h5.58v38.56
		l-24.06-23.1c-0.64-0.63-1.26-1.28-1.86-1.98c-0.6-0.69-1.17-1.42-1.71-2.18v25.81H549.58z"/>
	<path d="M589.06,484c0-1.76,0.33-3.42,1-4.98c0.67-1.56,1.63-2.95,2.88-4.17c1.23-1.2,2.65-2.12,4.26-2.76
		c1.61-0.64,3.29-0.96,5.05-0.96c1.81,0,3.51,0.32,5.11,0.96c1.6,0.64,3.03,1.59,4.3,2.84c1.27,1.23,2.23,2.63,2.89,4.18
		c0.66,1.56,0.99,3.19,0.99,4.89c0,1.77-0.33,3.44-0.98,4.99c-0.65,1.56-1.6,2.93-2.85,4.13c-1.32,1.27-2.78,2.23-4.39,2.88
		s-3.3,0.98-5.07,0.98c-1.74,0-3.41-0.33-5.02-0.98c-1.61-0.65-3.03-1.59-4.28-2.83c-1.27-1.25-2.23-2.65-2.89-4.21
		C589.39,487.41,589.06,485.76,589.06,484z M609.72,484.05c0-2.23-0.72-4.12-2.16-5.67c-1.44-1.55-3.2-2.32-5.27-2.32
		c-2.06,0-3.82,0.77-5.26,2.32c-1.45,1.55-2.17,3.44-2.17,5.67c0,2.23,0.72,4.12,2.17,5.67c1.44,1.55,3.2,2.32,5.26,2.32
		c2.06,0,3.82-0.77,5.26-2.32C609,488.17,609.72,486.28,609.72,484.05z"/>
	<path d="M622.65,495.99v-19.22h-4.21v-4.82h4.21v-9.1h5.5v9.1h4.21v4.82h-4.21v19.22H622.65z"/>
	<path d="M683.02,467.9c-1.71-1.45-3.51-2.54-5.41-3.27c-1.9-0.73-3.9-1.09-6-1.09c-4.06,0-7.36,1.3-9.9,3.9
		c-2.54,2.6-3.82,5.98-3.82,10.12c0,4.01,1.24,7.31,3.71,9.91c2.48,2.6,5.6,3.9,9.37,3.9c2.2,0,4.29-0.39,6.27-1.17
		s3.89-1.95,5.72-3.52v6.82c-1.62,1.17-3.39,2.04-5.3,2.61c-1.91,0.57-3.98,0.86-6.21,0.86c-2.84,0-5.46-0.47-7.87-1.39
		c-2.41-0.93-4.53-2.3-6.35-4.11c-1.81-1.78-3.2-3.87-4.17-6.28c-0.97-2.41-1.46-4.97-1.46-7.7c0-2.72,0.49-5.28,1.46-7.67
		c0.97-2.39,2.38-4.49,4.22-6.3c1.84-1.83,3.96-3.21,6.34-4.15c2.38-0.94,4.96-1.41,7.73-1.41c2.18,0,4.26,0.32,6.24,0.95
		c1.98,0.63,3.9,1.59,5.75,2.88L683.02,467.9z"/>
	<path d="M688.27,484c0-1.76,0.33-3.42,1-4.98c0.67-1.56,1.63-2.95,2.88-4.17c1.23-1.2,2.65-2.12,4.26-2.76
		c1.61-0.64,3.29-0.96,5.05-0.96c1.81,0,3.51,0.32,5.11,0.96c1.6,0.64,3.03,1.59,4.3,2.84c1.27,1.23,2.23,2.63,2.89,4.18
		c0.66,1.56,0.99,3.19,0.99,4.89c0,1.77-0.33,3.44-0.98,4.99c-0.65,1.56-1.6,2.93-2.85,4.13c-1.32,1.27-2.78,2.23-4.39,2.88
		s-3.3,0.98-5.07,0.98c-1.74,0-3.42-0.33-5.02-0.98c-1.61-0.65-3.03-1.59-4.29-2.83c-1.27-1.25-2.23-2.65-2.89-4.21
		C688.6,487.41,688.27,485.76,688.27,484z M708.93,484.05c0-2.23-0.72-4.12-2.16-5.67c-1.44-1.55-3.2-2.32-5.27-2.32
		c-2.06,0-3.82,0.77-5.26,2.32s-2.17,3.44-2.17,5.67c0,2.23,0.72,4.12,2.17,5.67c1.45,1.55,3.2,2.32,5.26,2.32
		c2.06,0,3.82-0.77,5.26-2.32C708.21,488.17,708.93,486.28,708.93,484.05z"/>
	<path d="M720.57,495.99v-24.04h5.17v3.93c1.1-1.66,2.39-2.87,3.88-3.63s3.3-1.14,5.43-1.14c1.79,0,3.32,0.28,4.58,0.85
		c1.26,0.57,2.24,1.41,2.95,2.52c0.42,0.66,0.73,1.43,0.91,2.31c0.19,0.88,0.28,2.42,0.28,4.61v14.58h-5.55v-12.35
		c0-3.16-0.38-5.26-1.15-6.3c-0.77-1.04-2.13-1.56-4.09-1.56c-1.28,0-2.43,0.24-3.44,0.71c-1.01,0.47-1.8,1.14-2.37,2
		c-0.41,0.57-0.69,1.31-0.85,2.22c-0.16,0.91-0.24,2.35-0.24,4.32v10.95H720.57z"/>
	<path d="M751.09,495.99v-24.04h5.17v3.93c1.1-1.66,2.39-2.87,3.88-3.63s3.3-1.14,5.43-1.14c1.79,0,3.32,0.28,4.58,0.85
		c1.26,0.57,2.24,1.41,2.95,2.52c0.42,0.66,0.73,1.43,0.91,2.31c0.19,0.88,0.28,2.42,0.28,4.61v14.58h-5.55v-12.35
		c0-3.16-0.38-5.26-1.15-6.3c-0.77-1.04-2.13-1.56-4.09-1.56c-1.28,0-2.43,0.24-3.44,0.71c-1.01,0.47-1.8,1.14-2.37,2
		c-0.41,0.57-0.69,1.31-0.85,2.22c-0.16,0.91-0.24,2.35-0.24,4.32v10.95H751.09z"/>
	<path d="M804.77,484.78h-19.22c0.13,2.25,0.8,4,2,5.26c1.2,1.26,2.8,1.89,4.79,1.89c1.77,0,3.25-0.37,4.44-1.12
		c1.18-0.74,2.21-1.94,3.09-3.6l4.64,2.59c-1.35,2.42-3.03,4.22-5.02,5.4s-4.34,1.78-7.02,1.78c-3.85,0-6.92-1.17-9.2-3.52
		s-3.42-5.49-3.42-9.41c0-3.77,1.18-6.87,3.54-9.29c2.36-2.42,5.39-3.64,9.09-3.64c3.87,0,6.89,1.11,9.05,3.32
		c2.16,2.21,3.25,5.32,3.25,9.3V484.78z M799.07,481.08c-0.22-1.72-0.88-3.04-1.98-3.94c-1.1-0.9-2.6-1.36-4.51-1.36
		c-1.81,0-3.26,0.44-4.36,1.32c-1.1,0.88-1.87,2.21-2.31,3.98H799.07z"/>
	<path d="M828.45,478.8c-0.85-0.93-1.83-1.64-2.95-2.13c-1.12-0.49-2.34-0.73-3.64-0.73c-2.25,0-4.05,0.73-5.4,2.18
		c-1.35,1.45-2.03,3.38-2.03,5.78c0,2.5,0.68,4.47,2.04,5.89c1.36,1.43,3.24,2.14,5.64,2.14c1.33,0,2.53-0.25,3.58-0.75
		c1.05-0.5,1.97-1.25,2.76-2.27v6.34c-1.01,0.58-2.1,1.01-3.26,1.29c-1.16,0.29-2.39,0.43-3.69,0.43c-3.77,0-6.84-1.2-9.22-3.6
		c-2.38-2.4-3.56-5.51-3.56-9.33c0-3.87,1.23-6.99,3.69-9.37c2.46-2.37,5.67-3.56,9.65-3.56c1.25,0,2.4,0.12,3.45,0.37
		s2.03,0.62,2.94,1.13V478.8z"/>
	<path d="M835.37,495.99v-19.22h-4.21v-4.82h4.21v-9.1h5.5v9.1h4.21v4.82h-4.21v19.22H835.37z"/>
	<path d="M872.97,484.78h-19.22c0.13,2.25,0.8,4,2,5.26c1.2,1.26,2.8,1.89,4.79,1.89c1.77,0,3.25-0.37,4.44-1.12
		c1.18-0.74,2.21-1.94,3.09-3.6l4.64,2.59c-1.35,2.42-3.03,4.22-5.02,5.4s-4.34,1.78-7.02,1.78c-3.85,0-6.92-1.17-9.2-3.52
		s-3.42-5.49-3.42-9.41c0-3.77,1.18-6.87,3.54-9.29c2.36-2.42,5.39-3.64,9.09-3.64c3.87,0,6.89,1.11,9.05,3.32
		c2.16,2.21,3.25,5.32,3.25,9.3V484.78z M867.27,481.08c-0.22-1.72-0.88-3.04-1.98-3.94c-1.1-0.9-2.6-1.36-4.51-1.36
		c-1.81,0-3.26,0.44-4.36,1.32c-1.1,0.88-1.87,2.21-2.31,3.98H867.27z"/>
	<path d="M895.82,456.69h5.5v39.3h-5.5v-3.12c-0.98,1.39-2.13,2.42-3.44,3.09s-2.81,1.01-4.5,1.01c-3.4,0-6.07-1.16-8.02-3.49
		s-2.93-5.51-2.93-9.55c0-3.84,1-6.93,2.99-9.29c1.99-2.36,4.6-3.54,7.81-3.54c1.96,0,3.64,0.41,5.03,1.23s2.41,2,3.05,3.54V456.69z
		 M895.97,483.9c0-2.49-0.58-4.42-1.74-5.81c-1.16-1.39-2.78-2.08-4.86-2.08s-3.71,0.71-4.91,2.14c-1.19,1.43-1.79,3.41-1.79,5.95
		c0,2.55,0.57,4.52,1.72,5.91s2.77,2.08,4.87,2.08c1.99,0,3.61-0.75,4.84-2.24C895.35,488.35,895.97,486.37,895.97,483.9z"/>
	<path d="M500.09,544.33c-0.78,0.39-1.57,0.68-2.37,0.86c-0.8,0.19-1.62,0.28-2.45,0.28c-3.33,0-6.07-1.12-8.21-3.35
		c-2.15-2.23-3.22-5.1-3.22-8.6c0-3.82,1.2-6.9,3.61-9.23s5.59-3.5,9.55-3.5c3.69,0,6.66,1.14,8.91,3.41
		c2.26,2.27,3.38,5.26,3.38,8.96c0,3.97-2.71,9.76-8.14,17.37l-0.63,0.91l-6.54,9.18l-4.56-2.33L500.09,544.33z M503.49,533.13
		c0-2.21-0.61-4-1.83-5.35c-1.22-1.35-2.81-2.03-4.79-2.03c-2.21,0-3.96,0.66-5.24,1.98s-1.91,3.12-1.91,5.4
		c0,2.33,0.63,4.16,1.88,5.49s2.98,1.99,5.17,1.99c1.98,0,3.59-0.7,4.84-2.09C502.86,537.12,503.49,535.32,503.49,533.13z"/>
	<path d="M517.76,538.15c0-0.9,0.33-1.67,0.98-2.31c0.65-0.64,1.43-0.96,2.35-0.96c0.93,0,1.72,0.31,2.36,0.94
		c0.64,0.63,0.96,1.4,0.96,2.33s-0.32,1.72-0.96,2.36c-0.64,0.64-1.43,0.96-2.36,0.96c-0.93,0-1.72-0.32-2.36-0.96
		C518.08,539.86,517.76,539.08,517.76,538.15z M517.76,555.49c0-0.9,0.33-1.67,0.98-2.33c0.65-0.66,1.43-0.99,2.35-0.99
		c0.93,0,1.72,0.32,2.36,0.96c0.64,0.64,0.96,1.43,0.96,2.36c0,0.91-0.32,1.69-0.96,2.32c-0.64,0.63-1.43,0.95-2.36,0.95
		c-0.93,0-1.72-0.32-2.36-0.95C518.08,557.17,517.76,556.4,517.76,555.49z"/>
	<path d="M547.45,550.87l4.82-2.23c0.46,1.66,1.29,2.92,2.51,3.79c1.22,0.87,2.77,1.31,4.67,1.31c1.79,0,3.22-0.5,4.27-1.5
		c1.06-1,1.58-2.33,1.58-4.01c0-2.18-1.81-4.12-5.43-5.83c-0.51-0.25-0.9-0.44-1.17-0.56c-4.09-1.99-6.82-3.8-8.18-5.41
		c-1.36-1.61-2.04-3.59-2.04-5.92c0-3.03,1.03-5.48,3.08-7.35c2.05-1.88,4.75-2.81,8.08-2.81c2.74,0,5.03,0.53,6.87,1.58
		c1.84,1.06,3.12,2.57,3.83,4.55l-4.72,2.43c-0.74-1.17-1.56-2.02-2.45-2.56c-0.89-0.54-1.91-0.81-3.06-0.81
		c-1.62,0-2.91,0.42-3.87,1.27c-0.96,0.85-1.43,1.98-1.43,3.4c0,2.23,2.1,4.31,6.29,6.24c0.32,0.15,0.57,0.27,0.76,0.36
		c3.67,1.69,6.19,3.34,7.56,4.96c1.37,1.61,2.05,3.63,2.05,6.05c0,3.52-1.11,6.31-3.32,8.38c-2.21,2.07-5.21,3.11-8.98,3.11
		c-3.16,0-5.75-0.73-7.77-2.18C549.4,555.66,548.08,553.58,547.45,550.87z"/>
	<path d="M595.57,541.11c-0.85-0.93-1.83-1.64-2.95-2.13c-1.12-0.49-2.34-0.73-3.64-0.73c-2.25,0-4.05,0.73-5.4,2.18
		c-1.35,1.45-2.03,3.38-2.03,5.78c0,2.5,0.68,4.47,2.04,5.89c1.36,1.43,3.24,2.14,5.64,2.14c1.33,0,2.53-0.25,3.57-0.75
		c1.05-0.5,1.97-1.25,2.76-2.27v6.34c-1.01,0.58-2.1,1.01-3.26,1.29c-1.16,0.29-2.39,0.43-3.69,0.43c-3.77,0-6.84-1.2-9.22-3.6
		c-2.38-2.4-3.56-5.51-3.56-9.33c0-3.87,1.23-6.99,3.69-9.37c2.46-2.37,5.68-3.56,9.65-3.56c1.25,0,2.4,0.12,3.45,0.37
		c1.05,0.25,2.03,0.62,2.94,1.13V541.11z"/>
	<path d="M606.7,538.1c0.59-1.59,1.37-2.76,2.35-3.52c0.97-0.76,2.18-1.14,3.61-1.14c0.78,0,1.54,0.09,2.29,0.28
		c0.75,0.19,1.49,0.46,2.22,0.81l-1.98,4.67c-0.47-0.34-0.99-0.59-1.53-0.75c-0.55-0.16-1.16-0.24-1.84-0.24
		c-1.83,0-3.14,0.73-3.93,2.19c-0.79,1.46-1.19,3.92-1.19,7.37v10.55h-5.5v-24.09h5.5V538.1z"/>
	<path d="M643.47,547.1h-19.22c0.13,2.25,0.8,4,2,5.26c1.2,1.26,2.8,1.89,4.79,1.89c1.77,0,3.25-0.37,4.44-1.12
		c1.18-0.74,2.21-1.94,3.09-3.6l4.64,2.59c-1.35,2.42-3.03,4.22-5.02,5.4s-4.34,1.78-7.02,1.78c-3.85,0-6.92-1.17-9.2-3.52
		s-3.42-5.49-3.42-9.41c0-3.77,1.18-6.87,3.54-9.29c2.36-2.42,5.39-3.64,9.09-3.64c3.87,0,6.89,1.11,9.05,3.32
		c2.16,2.21,3.25,5.32,3.25,9.3V547.1z M637.76,543.39c-0.22-1.72-0.88-3.04-1.98-3.94c-1.1-0.9-2.6-1.36-4.51-1.36
		c-1.81,0-3.26,0.44-4.36,1.32c-1.1,0.88-1.87,2.21-2.31,3.98H637.76z"/>
	<path d="M672.34,547.1h-19.22c0.13,2.25,0.8,4,2,5.26c1.2,1.26,2.8,1.89,4.79,1.89c1.77,0,3.25-0.37,4.44-1.12
		c1.18-0.74,2.21-1.94,3.09-3.6l4.64,2.59c-1.35,2.42-3.03,4.22-5.02,5.4s-4.34,1.78-7.02,1.78c-3.85,0-6.92-1.17-9.2-3.52
		s-3.42-5.49-3.42-9.41c0-3.77,1.18-6.87,3.54-9.29c2.36-2.42,5.39-3.64,9.09-3.64c3.87,0,6.89,1.11,9.05,3.32
		c2.16,2.21,3.25,5.32,3.25,9.3V547.1z M666.64,543.39c-0.22-1.72-0.88-3.04-1.98-3.94c-1.1-0.9-2.6-1.36-4.51-1.36
		c-1.81,0-3.26,0.44-4.36,1.32c-1.1,0.88-1.87,2.21-2.31,3.98H666.64z"/>
	<path d="M678.08,558.3v-24.04h5.17v3.93c1.1-1.66,2.39-2.87,3.88-3.63s3.3-1.14,5.43-1.14c1.79,0,3.32,0.28,4.58,0.85
		c1.26,0.57,2.24,1.41,2.95,2.52c0.42,0.66,0.73,1.43,0.91,2.31c0.19,0.88,0.28,2.42,0.28,4.61v14.58h-5.55v-12.35
		c0-3.16-0.38-5.26-1.15-6.3c-0.77-1.04-2.13-1.56-4.09-1.56c-1.28,0-2.43,0.24-3.44,0.71c-1.01,0.47-1.8,1.14-2.37,2
		c-0.41,0.57-0.69,1.31-0.85,2.22c-0.16,0.91-0.24,2.35-0.24,4.32v10.95H678.08z"/>
	<path d="M745.29,539.29H760c0,0.25,0.01,0.61,0.03,1.06c0.05,1.2,0.08,2.01,0.08,2.43c0,5.22-1.5,9.28-4.49,12.17
		c-2.99,2.89-7.21,4.34-12.65,4.34c-3.04,0-5.76-0.45-8.14-1.34c-2.38-0.9-4.47-2.25-6.26-4.06c-1.76-1.79-3.11-3.9-4.04-6.31
		s-1.41-5-1.41-7.76c0-2.81,0.48-5.39,1.43-7.76s2.37-4.45,4.25-6.26c1.81-1.78,3.93-3.13,6.36-4.06c2.43-0.93,5.04-1.39,7.81-1.39
		c2.92,0,5.54,0.53,7.85,1.6c2.31,1.06,4.37,2.7,6.17,4.89l-4.41,3.32c-1.25-1.45-2.66-2.54-4.23-3.25s-3.33-1.06-5.27-1.06
		c-4.02,0-7.31,1.29-9.85,3.87c-2.54,2.58-3.82,5.93-3.82,10.05c0,4.19,1.27,7.59,3.82,10.21s5.84,3.92,9.9,3.92
		c3.45,0,6.16-0.8,8.14-2.41c1.98-1.61,2.97-3.79,2.97-6.57v-0.53h-8.92V539.29z"/>
	<path d="M771.48,538.1c0.59-1.59,1.37-2.76,2.35-3.52c0.97-0.76,2.18-1.14,3.61-1.14c0.78,0,1.54,0.09,2.29,0.28
		c0.75,0.19,1.49,0.46,2.22,0.81l-1.98,4.67c-0.47-0.34-0.99-0.59-1.53-0.75c-0.55-0.16-1.16-0.24-1.84-0.24
		c-1.83,0-3.14,0.73-3.93,2.19c-0.79,1.46-1.19,3.92-1.19,7.37v10.55h-5.5v-24.09h5.5V538.1z"/>
	<path d="M784.61,523.87c0-0.93,0.34-1.73,1.03-2.41c0.68-0.68,1.5-1.01,2.45-1.01c0.98,0,1.8,0.33,2.45,0.98
		c0.65,0.65,0.98,1.47,0.98,2.45s-0.33,1.8-0.99,2.47s-1.47,1-2.43,1c-0.95,0-1.76-0.34-2.45-1.03S784.61,524.82,784.61,523.87z
		 M785.35,558.3v-24.04h5.5v24.04H785.35z"/>
	<path d="M815.82,519h5.5v39.3h-5.5v-3.12c-0.98,1.39-2.13,2.42-3.44,3.09s-2.81,1.01-4.5,1.01c-3.4,0-6.07-1.16-8.02-3.49
		s-2.93-5.51-2.93-9.55c0-3.84,1-6.93,2.99-9.29c1.99-2.36,4.6-3.54,7.81-3.54c1.96,0,3.64,0.41,5.03,1.23s2.41,2,3.05,3.54V519z
		 M815.98,546.21c0-2.49-0.58-4.42-1.74-5.81c-1.16-1.39-2.78-2.08-4.86-2.08s-3.71,0.71-4.91,2.14c-1.19,1.43-1.79,3.41-1.79,5.95
		c0,2.55,0.57,4.52,1.72,5.91s2.77,2.08,4.87,2.08c1.99,0,3.61-0.75,4.84-2.24C815.36,550.66,815.98,548.68,815.98,546.21z"/>
</g>
<g>
</g>
<g>
</g>
<g>
</g>
<g>
</g>
<g>
</g>
<g>
</g>
<g>
</g>
<g>
</g>
<g>
</g>
<g>
</g>
<g>
</g>
<g>
</g>
<g>
</g>
<g>
</g>
<g>
</g>
</svg>
